<?xml version="1.0" encoding="UTF-8" standalone="no"?>
<!-- Creator: fig2dev Version 3.2.7b -->
<!-- CreationDate: 2020-01-28 17:45:45 -->
<!-- Magnification: 1.05 -->
<svg	xmlns="http://www.w3.org/2000/svg"
	xmlns:xlink="http://www.w3.org/1999/xlink"
	width="711pt" height="328pt"
	viewBox="888 1113 11274 5199">
<g fill="none">
<!-- Line -->
<defs>
<clipPath id="cp0">
	<path clip-rule="evenodd" d="M 888,1113 H 12162 V 6312 H 888 z
		M 9770,3201 9803,3251 9909,3152 9902,3141z"/>
</clipPath>
</defs>
<polyline points=" 8550,4050 9900,3150" clip-path="url(#cp0)"
	stroke="#ff00ff" stroke-width="8px"/>
<!-- Forward arrow to point 9900,3150 -->
<polygon points=" 9803,3251 9887,3159 9770,3201 9803,3251"
	stroke="#ff00ff" stroke-width="8px" stroke-miterlimit="8" fill="#ff00ff"/>
<!-- Line -->
<defs>
<clipPath id="cp1">
	<path clip-rule="evenodd" d="M 888,1113 H 12162 V 6312 H 888 z
		M 10438,3178 10463,3233 10584,3153 10578,3141z"/>
</clipPath>
</defs>
<polyline points=" 8550,4050 10575,3150" clip-path="url(#cp1)"
	stroke="#ff00ff" stroke-width="8px"/>
<!-- Forward arrow to point 10575,3150 -->
<polygon points=" 10463,3233 10560,3157 10438,3178 10463,3233"
	stroke="#ff00ff" stroke-width="8px" stroke-miterlimit="8" fill="#ff00ff"/>
<!-- Line -->
<defs>
<clipPath id="cp2">
	<path clip-rule="evenodd" d="M 888,1113 H 12162 V 6312 H 888 z
		M 11111,3165 11130,3222 11259,3154 11254,3141z"/>
</clipPath>
</defs>
<polyline points=" 8550,4050 11250,3150" clip-path="url(#cp2)"
	stroke="#ff00ff" stroke-width="8px"/>
<!-- Forward arrow to point 11250,3150 -->
<polygon points=" 11130,3222 11235,3155 11111,3165 11130,3222"
	stroke="#ff00ff" stroke-width="8px" stroke-miterlimit="8" fill="#ff00ff"/>
<!-- Line -->
<defs>
<clipPath id="cp3">
	<path clip-rule="evenodd" d="M 888,1113 H 12162 V 6312 H 888 z
		M 11786,3156 11801,3214 11933,3155 11930,3142z"/>
</clipPath>
</defs>
<polyline points=" 8550,4050 11925,3150" clip-path="url(#cp3)"
	stroke="#ff00ff" stroke-width="8px"/>
<!-- Forward arrow to point 11925,3150 -->
<polygon points=" 11801,3214 11909,3154 11786,3156 11801,3214"
	stroke="#ff00ff" stroke-width="8px" stroke-miterlimit="8" fill="#ff00ff"/>
<!-- Line -->
<defs>
<clipPath id="cp4">
	<path clip-rule="evenodd" d="M 888,1113 H 12162 V 6312 H 888 z
		M 8413,4528 8438,4583 8559,4503 8553,4491z"/>
</clipPath>
</defs>
<polyline points=" 6525,5400 8550,4500" clip-path="url(#cp4)"
	stroke="#ff00ff" stroke-width="8px"/>
<!-- Forward arrow to point 8550,4500 -->
<polygon points=" 8438,4583 8535,4507 8413,4528 8438,4583"
	stroke="#ff00ff" stroke-width="8px" stroke-miterlimit="8" fill="#ff00ff"/>
<!-- Line -->
<defs>
<clipPath id="cp5">
	<path clip-rule="evenodd" d="M 888,1113 H 12162 V 6312 H 888 z
		M 7094,4591 7142,4627 7209,4499 7199,4491z"/>
</clipPath>
</defs>
<polyline points=" 6525,5400 7200,4500" clip-path="url(#cp5)"
	stroke="#ff0000" stroke-width="8px"/>
<!-- Forward arrow to point 7200,4500 -->
<polygon points=" 7142,4627 7190,4513 7094,4591 7142,4627"
	stroke="#ff0000" stroke-width="8px" stroke-miterlimit="8" fill="#ff0000"/>
<!-- Line -->
<defs>
<clipPath id="cp6">
	<path clip-rule="evenodd" d="M 888,1113 H 12162 V 6312 H 888 z
		M 6979,3289 7037,3275 6980,3142 6967,3145z"/>
</clipPath>
</defs>
<polyline points=" 7200,4050 6975,3150" clip-path="url(#cp6)"
	stroke="#ff0000" stroke-width="8px"/>
<!-- Forward arrow to point 6975,3150 -->
<polygon points=" 7037,3275 6979,3166 6979,3289 7037,3275"
	stroke="#ff0000" stroke-width="8px" stroke-miterlimit="8" fill="#ff0000"/>
<!-- Line -->
<defs>
<clipPath id="cp7">
	<path clip-rule="evenodd" d="M 888,1113 H 12162 V 6312 H 888 z
		M 7562,3258 7616,3285 7659,3147 7647,3141z"/>
</clipPath>
</defs>
<polyline points=" 7200,4050 7650,3150" clip-path="url(#cp7)"
	stroke="#ff0000" stroke-width="8px"/>
<!-- Forward arrow to point 7650,3150 -->
<polygon points=" 7616,3285 7643,3164 7562,3258 7616,3285"
	stroke="#ff0000" stroke-width="8px" stroke-miterlimit="8" fill="#ff0000"/>
<!-- Line -->
<defs>
<clipPath id="cp8">
	<path clip-rule="evenodd" d="M 888,1113 H 12162 V 6312 H 888 z
		M 8200,3212 8237,3259 8334,3151 8326,3141z"/>
</clipPath>
</defs>
<polyline points=" 7200,4050 8325,3150" clip-path="url(#cp8)"
	stroke="#ff0000" stroke-width="8px"/>
<!-- Forward arrow to point 8325,3150 -->
<polygon points=" 8237,3259 8312,3160 8200,3212 8237,3259"
	stroke="#ff0000" stroke-width="8px" stroke-miterlimit="8" fill="#ff0000"/>
<!-- Line -->
<defs>
<clipPath id="cp9">
	<path clip-rule="evenodd" d="M 888,1113 H 12162 V 6312 H 888 z
		M 8865,3184 8892,3238 9009,3153 9003,3141z"/>
</clipPath>
</defs>
<polyline points=" 7200,4050 9000,3150" clip-path="url(#cp9)"
	stroke="#ff0000" stroke-width="8px"/>
<!-- Forward arrow to point 9000,3150 -->
<polygon points=" 8892,3238 8986,3157 8865,3184 8892,3238"
	stroke="#ff0000" stroke-width="8px" stroke-miterlimit="8" fill="#ff0000"/>
<!-- Line -->
<rect x="5850" y="5400" width="1350" height="900" fill="#ffff00"
	stroke="#000000" stroke-width="8px"/>
<!-- Line -->
<rect x="6750" y="4050" width="900" height="450" fill="#ff0000"
	stroke="#000000" stroke-width="8px"/>
<!-- Line -->
<rect x="4050" y="4050" width="900" height="450" fill="#00ff00"
	stroke="#000000" stroke-width="8px"/>
<!-- Line -->
<rect x="8100" y="4050" width="900" height="450" fill="#ff00ff"
	stroke="#000000" stroke-width="8px"/>
<!-- Line -->
<rect x="11025" y="2700" width="450" height="450" fill="#ff00ff"
	stroke="#000000" stroke-width="8px"/>
<!-- Line -->
<rect x="11700" y="2700" width="450" height="450" fill="#ff00ff"
	stroke="#000000" stroke-width="8px"/>
<!-- Line -->
<rect x="10350" y="2700" width="450" height="450" fill="#ff00ff"
	stroke="#000000" stroke-width="8px"/>
<!-- Line -->
<rect x="9675" y="2700" width="450" height="450" fill="#ff00ff"
	stroke="#000000" stroke-width="8px"/>
<!-- Line -->
<rect x="8775" y="2700" width="450" height="450" fill="#ff0000"
	stroke="#000000" stroke-width="8px"/>
<!-- Line -->
<rect x="8100" y="2700" width="450" height="450" fill="#ff0000"
	stroke="#000000" stroke-width="8px"/>
<!-- Line -->
<rect x="7425" y="2700" width="450" height="450" fill="#ff0000"
	stroke="#000000" stroke-width="8px"/>
<!-- Line -->
<rect x="6750" y="2700" width="450" height="450" fill="#ff0000"
	stroke="#000000" stroke-width="8px"/>
<!-- Line -->
<rect x="2925" y="2700" width="450" height="450" fill="#00ff00"
	stroke="#000000" stroke-width="8px"/>
<!-- Line -->
<rect x="2250" y="2700" width="450" height="450" fill="#00ff00"
	stroke="#000000" stroke-width="8px"/>
<!-- Line -->
<rect x="900" y="2700" width="450" height="450" fill="#00ff00"
	stroke="#000000" stroke-width="8px"/>
<!-- Line -->
<defs>
<clipPath id="cp10">
	<path clip-rule="evenodd" d="M 888,1113 H 12162 V 6312 H 888 z
		M 3247,3251 3280,3201 3148,3141 3141,3152z"/>
</clipPath>
</defs>
<polyline points=" 4500,4050 3150,3150" clip-path="url(#cp10)"
	stroke="#00ff00" stroke-width="8px"/>
<!-- Forward arrow to point 3150,3150 -->
<polygon points=" 3280,3201 3163,3159 3247,3251 3280,3201"
	stroke="#00ff00" stroke-width="8px" stroke-miterlimit="8" fill="#00ff00"/>
<!-- Line -->
<defs>
<clipPath id="cp11">
	<path clip-rule="evenodd" d="M 888,1113 H 12162 V 6312 H 888 z
		M 1920,3222 1939,3165 1796,3141 1791,3154z"/>
</clipPath>
</defs>
<polyline points=" 4500,4050 1800,3150" clip-path="url(#cp11)"
	stroke="#00ff00" stroke-width="8px"/>
<!-- Forward arrow to point 1800,3150 -->
<polygon points=" 1939,3165 1815,3155 1920,3222 1939,3165"
	stroke="#00ff00" stroke-width="8px" stroke-miterlimit="8" fill="#00ff00"/>
<!-- Line -->
<defs>
<clipPath id="cp12">
	<path clip-rule="evenodd" d="M 888,1113 H 12162 V 6312 H 888 z
		M 1249,3214 1264,3156 1120,3142 1117,3155z"/>
</clipPath>
</defs>
<polyline points=" 4500,4050 1125,3150" clip-path="url(#cp12)"
	stroke="#00ff00" stroke-width="8px"/>
<!-- Forward arrow to point 1125,3150 -->
<polygon points=" 1264,3156 1141,3154 1249,3214 1264,3156"
	stroke="#00ff00" stroke-width="8px" stroke-miterlimit="8" fill="#00ff00"/>
<!-- Line -->
<defs>
<clipPath id="cp13">
	<path clip-rule="evenodd" d="M 888,1113 H 12162 V 6312 H 888 z
		M 2587,3233 2612,3178 2472,3141 2466,3153z"/>
</clipPath>
</defs>
<polyline points=" 4500,4050 2475,3150" clip-path="url(#cp13)"
	stroke="#00ff00" stroke-width="8px"/>
<!-- Forward arrow to point 2475,3150 -->
<polygon points=" 2612,3178 2490,3157 2587,3233 2612,3178"
	stroke="#00ff00" stroke-width="8px" stroke-miterlimit="8" fill="#00ff00"/>
<!-- Line -->
<defs>
<clipPath id="cp14">
	<path clip-rule="evenodd" d="M 888,1113 H 12162 V 6312 H 888 z
		M 4612,4583 4637,4528 4497,4491 4491,4503z"/>
</clipPath>
</defs>
<polyline points=" 6525,5400 4500,4500" clip-path="url(#cp14)"
	stroke="#00ff00" stroke-width="8px"/>
<!-- Forward arrow to point 4500,4500 -->
<polygon points=" 4637,4528 4515,4507 4612,4583 4637,4528"
	stroke="#00ff00" stroke-width="8px" stroke-miterlimit="8" fill="#00ff00"/>
<!-- Line -->
<defs>
<clipPath id="cp15">
	<path clip-rule="evenodd" d="M 888,1113 H 12162 V 6312 H 888 z
		M 5722,3995 5711,4054 5855,4058 5858,4045z"/>
</clipPath>
</defs>
<polyline points=" 1125,3150 5850,4050" clip-path="url(#cp15)"
	stroke="#00ff00" stroke-width="8px"/>
<!-- Forward arrow to point 5850,4050 -->
<polygon points=" 5711,4054 5834,4047 5722,3995 5711,4054"
	stroke="#00ff00" stroke-width="8px" stroke-miterlimit="8" fill="#00ff00"/>
<!-- Line -->
<defs>
<clipPath id="cp16">
	<path clip-rule="evenodd" d="M 888,1113 H 12162 V 6312 H 888 z
		M 6845,4000 6836,4059 6981,4058 6983,4044z"/>
</clipPath>
</defs>
<polyline points=" 1125,3150 6975,4050" clip-path="url(#cp16)"
	stroke="#00ff00" stroke-width="8px"/>
<!-- Forward arrow to point 6975,4050 -->
<polygon points=" 6836,4059 6959,4048 6845,4000 6836,4059"
	stroke="#00ff00" stroke-width="8px" stroke-miterlimit="8" fill="#00ff00"/>
<!-- Line -->
<defs>
<clipPath id="cp17">
	<path clip-rule="evenodd" d="M 888,1113 H 12162 V 6312 H 888 z
		M 8418,4004 8411,4063 8556,4058 8558,4044z"/>
</clipPath>
</defs>
<polyline points=" 1125,3150 8550,4050" clip-path="url(#cp17)"
	stroke="#00ff00" stroke-width="8px"/>
<!-- Forward arrow to point 8550,4050 -->
<polygon points=" 8411,4063 8534,4048 8418,4004 8411,4063"
	stroke="#00ff00" stroke-width="8px" stroke-miterlimit="8" fill="#00ff00"/>
<!-- Line -->
<defs>
<clipPath id="cp18">
	<path clip-rule="evenodd" d="M 888,1113 H 12162 V 6312 H 888 z
		M 4639,4048 4626,3990 4492,4045 4495,4058z"/>
</clipPath>
</defs>
<polyline points=" 8325,3150 4500,4050" clip-path="url(#cp18)"
	stroke="#ff0000" stroke-width="8px"/>
<!-- Forward arrow to point 4500,4050 -->
<polygon points=" 4626,3990 4516,4046 4639,4048 4626,3990"
	stroke="#ff0000" stroke-width="8px" stroke-miterlimit="8" fill="#ff0000"/>
<!-- Line -->
<defs>
<clipPath id="cp19">
	<path clip-rule="evenodd" d="M 888,1113 H 12162 V 6312 H 888 z
		M 5988,4032 5968,3975 5841,4046 5846,4059z"/>
</clipPath>
</defs>
<polyline points=" 8325,3150 5850,4050" clip-path="url(#cp19)"
	stroke="#ff0000" stroke-width="8px"/>
<!-- Forward arrow to point 5850,4050 -->
<polygon points=" 5968,3975 5865,4044 5988,4032 5968,3975"
	stroke="#ff0000" stroke-width="8px" stroke-miterlimit="8" fill="#ff0000"/>
<!-- Line -->
<defs>
<clipPath id="cp20">
	<path clip-rule="evenodd" d="M 888,1113 H 12162 V 6312 H 888 z
		M 8546,3911 8488,3925 8545,4058 8558,4055z"/>
</clipPath>
</defs>
<polyline points=" 8325,3150 8550,4050" clip-path="url(#cp20)"
	stroke="#ff0000" stroke-width="8px"/>
<!-- Forward arrow to point 8550,4050 -->
<polygon points=" 8488,3925 8546,4034 8546,3911 8488,3925"
	stroke="#ff0000" stroke-width="8px" stroke-miterlimit="8" fill="#ff0000"/>
<!-- Line -->
<defs>
<clipPath id="cp21">
	<path clip-rule="evenodd" d="M 888,1113 H 12162 V 6312 H 888 z
		M 7339,4054 7328,3995 7192,4045 7195,4058z"/>
</clipPath>
</defs>
<polyline points=" 11925,3150 7200,4050" clip-path="url(#cp21)"
	stroke="#ff00ff" stroke-width="8px"/>
<!-- Forward arrow to point 7200,4050 -->
<polygon points=" 7328,3995 7216,4047 7339,4054 7328,3995"
	stroke="#ff00ff" stroke-width="8px" stroke-miterlimit="8" fill="#ff00ff"/>
<!-- Line -->
<defs>
<clipPath id="cp22">
	<path clip-rule="evenodd" d="M 888,1113 H 12162 V 6312 H 888 z
		M 5989,4060 5980,4000 5842,4044 5844,4058z"/>
</clipPath>
</defs>
<polyline points=" 11925,3150 5850,4050" clip-path="url(#cp22)"
	stroke="#ff00ff" stroke-width="8px"/>
<!-- Forward arrow to point 5850,4050 -->
<polygon points=" 5980,4000 5866,4048 5989,4060 5980,4000"
	stroke="#ff00ff" stroke-width="8px" stroke-miterlimit="8" fill="#ff00ff"/>
<!-- Line -->
<defs>
<clipPath id="cp23">
	<path clip-rule="evenodd" d="M 888,1113 H 12162 V 6312 H 888 z
		M 4639,4063 4632,4004 4492,4044 4494,4058z"/>
</clipPath>
</defs>
<polyline points=" 11925,3150 4500,4050" clip-path="url(#cp23)"
	stroke="#ff00ff" stroke-width="8px"/>
<!-- Forward arrow to point 4500,4050 -->
<polygon points=" 4632,4004 4516,4048 4639,4063 4632,4004"
	stroke="#ff00ff" stroke-width="8px" stroke-miterlimit="8" fill="#ff00ff"/>
<!-- Line -->
<defs>
<clipPath id="cp24">
	<path clip-rule="evenodd" d="M 888,1113 H 12162 V 6312 H 888 z
		M 5908,4627 5956,4591 5851,4491 5841,4499z"/>
</clipPath>
</defs>
<polyline points=" 6525,5400 5850,4500" clip-path="url(#cp24)"
	stroke="#00ffff" stroke-width="8px"/>
<!-- Forward arrow to point 5850,4500 -->
<polygon points=" 5956,4591 5860,4513 5908,4627 5956,4591"
	stroke="#00ffff" stroke-width="8px" stroke-miterlimit="8" fill="#00ffff"/>
<!-- Line -->
<defs>
<clipPath id="cp25">
	<path clip-rule="evenodd" d="M 888,1113 H 12162 V 6312 H 888 z
		M 6013,3275 6071,3289 6083,3145 6070,3142z"/>
</clipPath>
</defs>
<polyline points=" 5850,4050 6075,3150" clip-path="url(#cp25)"
	stroke="#00ffff" stroke-width="8px"/>
<!-- Forward arrow to point 6075,3150 -->
<polygon points=" 6071,3289 6071,3166 6013,3275 6071,3289"
	stroke="#00ffff" stroke-width="8px" stroke-miterlimit="8" fill="#00ffff"/>
<!-- Line -->
<defs>
<clipPath id="cp26">
	<path clip-rule="evenodd" d="M 888,1113 H 12162 V 6312 H 888 z
		M 7082,3975 7062,4032 7204,4059 7209,4046z"/>
</clipPath>
</defs>
<polyline points=" 4725,3150 7200,4050" clip-path="url(#cp26)"
	stroke="#00ffff" stroke-width="8px"/>
<!-- Forward arrow to point 7200,4050 -->
<polygon points=" 7062,4032 7185,4044 7082,3975 7062,4032"
	stroke="#00ffff" stroke-width="8px" stroke-miterlimit="8" fill="#00ffff"/>
<!-- Line -->
<defs>
<clipPath id="cp27">
	<path clip-rule="evenodd" d="M 888,1113 H 12162 V 6312 H 888 z
		M 8424,3990 8411,4048 8555,4058 8558,4045z"/>
</clipPath>
</defs>
<polyline points=" 4725,3150 8550,4050" clip-path="url(#cp27)"
	stroke="#00ffff" stroke-width="8px"/>
<!-- Forward arrow to point 8550,4050 -->
<polygon points=" 8411,4048 8534,4046 8424,3990 8411,4048"
	stroke="#00ffff" stroke-width="8px" stroke-miterlimit="8" fill="#00ffff"/>
<!-- Line -->
<defs>
<clipPath id="cp28">
	<path clip-rule="evenodd" d="M 888,1113 H 12162 V 6312 H 888 z
		M 4158,3238 4185,3184 4047,3141 4041,3153z"/>
</clipPath>
</defs>
<polyline points=" 5850,4050 4050,3150" clip-path="url(#cp28)"
	stroke="#00ffff" stroke-width="8px"/>
<!-- Forward arrow to point 4050,3150 -->
<polygon points=" 4185,3184 4064,3157 4158,3238 4185,3184"
	stroke="#00ffff" stroke-width="8px" stroke-miterlimit="8" fill="#00ffff"/>
<!-- Line -->
<defs>
<clipPath id="cp29">
	<path clip-rule="evenodd" d="M 888,1113 H 12162 V 6312 H 888 z
		M 4562,3925 4504,3911 4492,4055 4505,4058z"/>
</clipPath>
</defs>
<polyline points=" 4725,3150 4500,4050" clip-path="url(#cp29)"
	stroke="#00ffff" stroke-width="8px"/>
<!-- Forward arrow to point 4500,4050 -->
<polygon points=" 4504,3911 4504,4034 4562,3925 4504,3911"
	stroke="#00ffff" stroke-width="8px" stroke-miterlimit="8" fill="#00ffff"/>
<!-- Line -->
<defs>
<clipPath id="cp30">
	<path clip-rule="evenodd" d="M 888,1113 H 12162 V 6312 H 888 z
		M 5434,3285 5488,3258 5403,3141 5391,3147z"/>
</clipPath>
</defs>
<polyline points=" 5850,4050 5400,3150" clip-path="url(#cp30)"
	stroke="#00ffff" stroke-width="8px"/>
<!-- Forward arrow to point 5400,3150 -->
<polygon points=" 5488,3258 5407,3164 5434,3285 5488,3258"
	stroke="#00ffff" stroke-width="8px" stroke-miterlimit="8" fill="#00ffff"/>
<!-- Line -->
<defs>
<clipPath id="cp31">
	<path clip-rule="evenodd" d="M 888,1113 H 12162 V 6312 H 888 z
		M 4813,3259 4850,3212 4724,3141 4716,3151z"/>
</clipPath>
</defs>
<polyline points=" 5850,4050 4725,3150" clip-path="url(#cp31)"
	stroke="#00ffff" stroke-width="8px"/>
<!-- Forward arrow to point 4725,3150 -->
<polygon points=" 4850,3212 4738,3160 4813,3259 4850,3212"
	stroke="#00ffff" stroke-width="8px" stroke-miterlimit="8" fill="#00ffff"/>
<!-- Line -->
<rect x="5400" y="4050" width="900" height="450" fill="#00ffff"
	stroke="#000000" stroke-width="8px"/>
<!-- Line -->
<rect x="4500" y="2700" width="450" height="450" fill="#00ffff"
	stroke="#000000" stroke-width="8px"/>
<!-- Line -->
<rect x="3825" y="2700" width="450" height="450" fill="#00ffff"
	stroke="#000000" stroke-width="8px"/>
<!-- Line -->
<rect x="5850" y="2700" width="450" height="450" fill="#00ffff"
	stroke="#000000" stroke-width="8px"/>
<!-- Line -->
<rect x="5175" y="2700" width="450" height="450" fill="#00ffff"
	stroke="#000000" stroke-width="8px"/>
<!-- Line -->
<rect x="1575" y="2700" width="450" height="450" fill="#00ff00"
	stroke="#000000" stroke-width="8px"/>
<!-- Line -->
<defs>
<clipPath id="cp32">
	<path clip-rule="evenodd" d="M 888,1113 H 12162 V 6312 H 888 z
		M 4813,3259 4850,3212 4724,3141 4716,3151z"/>
</clipPath>
</defs>
<polyline points=" 6975,2700 6974,2699 6972,2698 6967,2696 6961,2692 6951,2687 6938,2679 6922,2671
 6903,2660 6880,2647 6853,2633 6824,2618 6791,2601 6756,2583 6719,2563 6679,2544
 6638,2524 6595,2503 6551,2483 6506,2462 6460,2442 6413,2422 6364,2403 6315,2384
 6265,2367 6214,2349 6161,2333 6107,2318 6052,2304 5995,2291 5936,2279 5876,2270
 5814,2261 5751,2255 5688,2251 5625,2250 5556,2252 5490,2257 5427,2264 5368,2274
 5314,2286 5263,2301 5216,2316 5172,2333 5131,2352 5093,2371 5058,2391 5024,2413
 4992,2435 4963,2457 4934,2480 4908,2503 4883,2526 4859,2549 4838,2571 4818,2592
 4800,2611 4783,2630 4769,2646 4757,2660 4747,2672 4740,2681 4734,2689 4725,2700
" clip-path="url(#cp32)"
	stroke="#ff0000" stroke-width="8px" stroke-linejoin="bevel"/>
<!-- Forward arrow to point 0,0 -->
<polyline points=""
	stroke="#ff0000" stroke-width="8px" stroke-miterlimit="8" fill="#ff0000"/>
<!-- Line -->
<defs>
<clipPath id="cp33">
	<path clip-rule="evenodd" d="M 888,1113 H 12162 V 6312 H 888 z
		M 5078,2337 5100,2393 5225,2320 5220,2307z"/>
</clipPath>
</defs>
<polyline points=" 6975,2700 6974,2699 6971,2698 6967,2696 6960,2692 6949,2687 6936,2680 6920,2672
 6900,2662 6877,2651 6852,2638 6824,2625 6794,2611 6762,2597 6729,2582 6694,2567
 6658,2552 6622,2538 6584,2524 6545,2511 6505,2498 6463,2486 6420,2474 6376,2464
 6330,2455 6282,2446 6232,2440 6180,2434 6128,2431 6075,2430 6015,2432 5959,2436
 5905,2443 5856,2451 5811,2462 5769,2474 5731,2487 5695,2501 5662,2516 5630,2532
 5601,2548 5574,2565 5548,2582 5523,2599 5501,2615 5480,2631 5462,2646 5446,2659
 5432,2671 5421,2681 5413,2688 5400,2700" clip-path="url(#cp33)"
	stroke="#ff0000" stroke-width="8px" stroke-linejoin="bevel"/>
<!-- Forward arrow to point 5216,2316 -->
<polygon points=" 5100,2393 5201,2322 5078,2337 5100,2393"
	stroke="#ff0000" stroke-width="8px" stroke-miterlimit="8" fill="#ff0000"/>
<!-- Line -->
<defs>
<clipPath id="cp34">
	<path clip-rule="evenodd" d="M 888,1113 H 12162 V 6312 H 888 z
		M 5078,2337 5100,2393 5225,2320 5220,2307z"/>
</clipPath>
</defs>
<polyline points=" 6975,2700 6973,2699 6970,2697 6964,2693 6954,2688 6941,2681 6925,2672 6907,2663
 6886,2652 6862,2641 6838,2630 6812,2619 6784,2609 6754,2599 6723,2590 6689,2582
 6652,2575 6612,2570 6570,2566 6525,2565 6480,2566 6438,2570 6398,2575 6361,2582
 6327,2590 6296,2599 6266,2609 6238,2619 6212,2630 6187,2641 6164,2652 6143,2663
 6125,2672 6109,2681 6096,2688 6075,2700" clip-path="url(#cp34)"
	stroke="#ff0000" stroke-width="8px" stroke-linejoin="bevel"/>
<!-- Forward arrow to point 0,0 -->
<polyline points=""
	stroke="#ff0000" stroke-width="8px" stroke-miterlimit="8" fill="#ff0000"/>
<!-- Line -->
<defs>
<clipPath id="cp35">
	<path clip-rule="evenodd" d="M 888,1113 H 12162 V 6312 H 888 z
		M 5419,2634 5452,2683 5557,2584 5550,2573z"/>
</clipPath>
</defs>
<polyline points=" 9000,2700 9001,2700 9003,2698 9007,2696 9013,2693 9021,2689 9032,2683 9047,2675
 9065,2665 9086,2654 9111,2641 9139,2627 9170,2611 9205,2593 9242,2574 9282,2554
 9325,2533 9369,2512 9416,2489 9464,2467 9513,2444 9564,2421 9616,2398 9669,2376
 9723,2354 9777,2332 9833,2311 9889,2290 9947,2270 10005,2251 10064,2232 10125,2215
 10187,2198 10250,2183 10315,2168 10382,2155 10449,2144 10518,2134 10588,2126
 10659,2120 10730,2116 10800,2115 10880,2117 10957,2122 11030,2130 11099,2140
 11163,2153 11223,2168 11279,2185 11332,2203 11381,2223 11426,2244 11469,2267
 11509,2290 11547,2314 11583,2339 11616,2365 11648,2391 11678,2417 11707,2444
 11734,2471 11759,2497 11783,2523 11805,2547 11825,2571 11844,2593 11860,2613
 11875,2632 11887,2648 11897,2662 11906,2673 11913,2683 11918,2690 11925,2700
" clip-path="url(#cp35)"
	stroke="#ff0000" stroke-width="8px" stroke-linejoin="bevel"/>
<!-- Forward arrow to point 5548,2582 -->
<polygon points=" 5452,2683 5535,2591 5419,2634 5452,2683"
	stroke="#ff0000" stroke-width="8px" stroke-miterlimit="8" fill="#ff0000"/>
<!-- Line -->
<defs>
<clipPath id="cp36">
	<path clip-rule="evenodd" d="M 888,1113 H 12162 V 6312 H 888 z
		M 11014,2156 11018,2096 10874,2110 10873,2123z"/>
</clipPath>
</defs>
<polyline points=" 9000,2700 9001,2699 9003,2698 9008,2696 9014,2692 9024,2687 9037,2679 9053,2671
 9072,2660 9095,2647 9122,2633 9151,2618 9184,2601 9219,2583 9256,2563 9296,2544
 9337,2524 9380,2503 9424,2483 9469,2462 9515,2442 9562,2422 9611,2403 9660,2384
 9710,2367 9761,2349 9814,2333 9868,2318 9923,2304 9980,2291 10039,2279 10099,2270
 10161,2261 10224,2255 10287,2251 10350,2250 10419,2252 10485,2257 10548,2264
 10607,2274 10661,2286 10712,2301 10759,2316 10803,2333 10844,2352 10882,2371
 10917,2391 10951,2413 10983,2435 11012,2457 11041,2480 11067,2503 11092,2526
 11116,2549 11137,2571 11157,2592 11175,2611 11192,2630 11206,2646 11218,2660
 11228,2672 11235,2681 11241,2689 11250,2700" clip-path="url(#cp36)"
	stroke="#ff0000" stroke-width="8px" stroke-linejoin="bevel"/>
<!-- Forward arrow to point 10880,2117 -->
<polygon points=" 11018,2096 10896,2118 11014,2156 11018,2096"
	stroke="#ff0000" stroke-width="8px" stroke-miterlimit="8" fill="#ff0000"/>
<!-- Line -->
<defs>
<clipPath id="cp37">
	<path clip-rule="evenodd" d="M 888,1113 H 12162 V 6312 H 888 z
		M 11014,2156 11018,2096 10874,2110 10873,2123z"/>
</clipPath>
</defs>
<polyline points=" 9000,2700 9001,2699 9004,2698 9008,2696 9015,2692 9026,2687 9039,2680 9055,2672
 9075,2662 9098,2651 9123,2638 9151,2625 9181,2611 9213,2597 9246,2582 9281,2567
 9317,2552 9353,2538 9391,2524 9430,2511 9470,2498 9512,2486 9555,2474 9599,2464
 9645,2455 9693,2446 9743,2440 9795,2434 9847,2431 9900,2430 9960,2432 10016,2436
 10070,2443 10119,2451 10164,2462 10206,2474 10244,2487 10280,2501 10313,2516
 10345,2532 10374,2548 10401,2565 10427,2582 10452,2599 10474,2615 10495,2631
 10513,2646 10529,2659 10543,2671 10554,2681 10562,2688 10575,2700" clip-path="url(#cp37)"
	stroke="#ff0000" stroke-width="8px" stroke-linejoin="bevel"/>
<!-- Forward arrow to point 0,0 -->
<polyline points=""
	stroke="#ff0000" stroke-width="8px" stroke-miterlimit="8" fill="#ff0000"/>
<!-- Line -->
<defs>
<clipPath id="cp38">
	<path clip-rule="evenodd" d="M 888,1113 H 12162 V 6312 H 888 z
		M 10523,2683 10556,2634 10425,2573 10418,2584z"/>
</clipPath>
</defs>
<polyline points=" 9000,2700 9002,2699 9005,2697 9011,2693 9021,2688 9034,2681 9050,2672 9068,2663
 9089,2652 9113,2641 9137,2630 9163,2619 9191,2609 9221,2599 9252,2590 9286,2582
 9323,2575 9363,2570 9405,2566 9450,2565 9495,2566 9537,2570 9577,2575 9614,2582
 9648,2590 9679,2599 9709,2609 9737,2619 9763,2630 9788,2641 9811,2652 9832,2663
 9850,2672 9866,2681 9879,2688 9900,2700" clip-path="url(#cp38)"
	stroke="#ff0000" stroke-width="8px" stroke-linejoin="bevel"/>
<!-- Forward arrow to point 10427,2582 -->
<polygon points=" 10556,2634 10440,2591 10523,2683 10556,2634"
	stroke="#ff0000" stroke-width="8px" stroke-miterlimit="8" fill="#ff0000"/>
<!-- Line -->
<defs>
<clipPath id="cp39">
	<path clip-rule="evenodd" d="M 888,1113 H 12162 V 6312 H 888 z
		M 10523,2683 10556,2634 10425,2573 10418,2584z"/>
</clipPath>
</defs>
<polyline points=" 9675,2925 9225,2925" clip-path="url(#cp39)"
	stroke="#ff00ff" stroke-width="8px" stroke-linejoin="bevel"/>
<!-- Forward arrow to point 0,0 -->
<polyline points=""
	stroke="#ff00ff" stroke-width="8px" stroke-miterlimit="8" fill="#ff00ff"/>
<!-- Line -->
<defs>
<clipPath id="cp40">
	<path clip-rule="evenodd" d="M 888,1113 H 12162 V 6312 H 888 z
		M 10523,2683 10556,2634 10425,2573 10418,2584z"/>
</clipPath>
</defs>
<polyline points=" 9900,2700 9899,2699 9896,2698 9892,2696 9885,2692 9874,2687 9861,2680 9845,2672
 9825,2662 9802,2651 9777,2638 9749,2625 9719,2611 9687,2597 9654,2582 9619,2567
 9583,2552 9547,2538 9509,2524 9470,2511 9430,2498 9388,2486 9345,2474 9301,2464
 9255,2455 9207,2446 9157,2440 9105,2434 9053,2431 9000,2430 8940,2432 8884,2436
 8830,2443 8781,2451 8736,2462 8694,2474 8656,2487 8620,2501 8587,2516 8555,2532
 8526,2548 8499,2565 8473,2582 8448,2599 8426,2615 8405,2631 8387,2646 8371,2659
 8357,2671 8346,2681 8338,2688 8325,2700" clip-path="url(#cp40)"
	stroke="#ff00ff" stroke-width="8px" stroke-linejoin="bevel"/>
<!-- Forward arrow to point 0,0 -->
<polyline points=""
	stroke="#ff00ff" stroke-width="8px" stroke-miterlimit="8" fill="#ff00ff"/>
<!-- Line -->
<defs>
<clipPath id="cp41">
	<path clip-rule="evenodd" d="M 888,1113 H 12162 V 6312 H 888 z
		M 8917,2398 8916,2458 9060,2438 9060,2424z"/>
</clipPath>
</defs>
<polyline points=" 9900,2700 9899,2699 9897,2698 9892,2696 9886,2692 9876,2687 9863,2679 9847,2671
 9828,2660 9805,2647 9778,2633 9749,2618 9716,2601 9681,2583 9644,2563 9604,2544
 9563,2524 9520,2503 9476,2483 9431,2462 9385,2442 9338,2422 9289,2403 9240,2384
 9190,2367 9139,2349 9086,2333 9032,2318 8977,2304 8920,2291 8861,2279 8801,2270
 8739,2261 8676,2255 8613,2251 8550,2250 8481,2252 8415,2257 8352,2264 8293,2274
 8239,2286 8188,2301 8141,2316 8097,2333 8056,2352 8018,2371 7983,2391 7949,2413
 7917,2435 7888,2457 7859,2480 7833,2503 7808,2526 7784,2549 7763,2571 7743,2592
 7725,2611 7708,2630 7694,2646 7682,2660 7672,2672 7665,2681 7659,2689 7650,2700
" clip-path="url(#cp41)"
	stroke="#ff00ff" stroke-width="8px" stroke-linejoin="bevel"/>
<!-- Forward arrow to point 9053,2431 -->
<polygon points=" 8916,2458 9037,2431 8917,2398 8916,2458"
	stroke="#ff00ff" stroke-width="8px" stroke-miterlimit="8" fill="#ff00ff"/>
<!-- Line -->
<defs>
<clipPath id="cp42">
	<path clip-rule="evenodd" d="M 888,1113 H 12162 V 6312 H 888 z
		M 8917,2398 8916,2458 9060,2438 9060,2424z"/>
</clipPath>
</defs>
<polyline points=" 9900,2700 9899,2700 9897,2698 9893,2696 9887,2693 9879,2689 9868,2683 9853,2675
 9835,2665 9814,2654 9789,2641 9761,2627 9730,2611 9695,2593 9658,2574 9618,2554
 9575,2533 9531,2512 9484,2489 9436,2467 9387,2444 9336,2421 9284,2398 9231,2376
 9177,2354 9123,2332 9067,2311 9011,2290 8953,2270 8895,2251 8836,2232 8775,2215
 8713,2198 8650,2183 8585,2168 8518,2155 8451,2144 8382,2134 8312,2126 8241,2120
 8170,2116 8100,2115 8020,2117 7943,2122 7870,2130 7801,2140 7737,2153 7677,2168
 7621,2185 7568,2203 7519,2223 7474,2244 7431,2267 7391,2290 7353,2314 7317,2339
 7284,2365 7252,2391 7222,2417 7193,2444 7166,2471 7141,2497 7117,2523 7095,2547
 7075,2571 7056,2593 7040,2613 7025,2632 7013,2648 7003,2662 6994,2673 6987,2683
 6982,2690 6975,2700" clip-path="url(#cp42)"
	stroke="#ff00ff" stroke-width="8px" stroke-linejoin="bevel"/>
<!-- Forward arrow to point 0,0 -->
<polyline points=""
	stroke="#ff00ff" stroke-width="8px" stroke-miterlimit="8" fill="#ff00ff"/>
<!-- Line -->
<defs>
<clipPath id="cp43">
	<path clip-rule="evenodd" d="M 888,1113 H 12162 V 6312 H 888 z
		M 8833,2199 8814,2256 8957,2279 8962,2266z"/>
</clipPath>
</defs>
<polyline points=" 10575,2700 10574,2700 10573,2699 10570,2697 10565,2694 10558,2691 10548,2685
 10536,2679 10520,2670 10502,2661 10480,2649 10455,2635 10426,2620 10394,2603
 10358,2584 10319,2564 10277,2542 10231,2519 10183,2494 10132,2468 10079,2442
 10023,2414 9965,2385 9906,2356 9844,2327 9781,2297 9717,2267 9652,2237 9585,2207
 9518,2177 9450,2147 9381,2118 9311,2089 9241,2061 9170,2033 9098,2006 9025,1979
 8952,1954 8877,1929 8802,1905 8726,1882 8648,1860 8570,1839 8491,1819 8410,1800
 8328,1783 8245,1767 8161,1753 8076,1741 7991,1730 7905,1721 7819,1715 7734,1711
 7650,1710 7549,1712 7452,1718 7360,1727 7271,1739 7188,1755 7110,1773 7036,1793
 6968,1815 6903,1839 6842,1865 6786,1893 6732,1922 6682,1952 6635,1984 6591,2017
 6549,2051 6510,2085 6473,2121 6437,2157 6404,2193 6372,2230 6342,2267 6314,2304
 6287,2340 6262,2376 6238,2411 6217,2445 6196,2478 6178,2509 6161,2538 6145,2565
 6132,2590 6120,2612 6109,2631 6101,2648 6093,2662 6088,2674 6083,2683 6080,2690
 6075,2700" clip-path="url(#cp43)"
	stroke="#ff00ff" stroke-width="8px" stroke-linejoin="bevel"/>
<!-- Forward arrow to point 8953,2270 -->
<polygon points=" 8814,2256 8938,2265 8833,2199 8814,2256"
	stroke="#ff00ff" stroke-width="8px" stroke-miterlimit="8" fill="#ff00ff"/>
<!-- Line -->
<defs>
<clipPath id="cp44">
	<path clip-rule="evenodd" d="M 888,1113 H 12162 V 6312 H 888 z
		M 9473,2124 9448,2179 9588,2216 9594,2204z"/>
</clipPath>
</defs>
<polyline points=" 10575,2700 10574,2700 10573,2699 10570,2697 10566,2695 10559,2691 10551,2686
 10539,2680 10525,2672 10508,2663 10488,2652 10465,2639 10438,2624 10408,2608
 10375,2590 10339,2570 10299,2549 10257,2526 10212,2502 10164,2477 10113,2451
 10060,2424 10005,2396 9947,2367 9888,2337 9828,2308 9765,2277 9702,2247 9637,2217
 9571,2187 9504,2156 9436,2127 9367,2097 9297,2068 9226,2039 9155,2011 9082,1983
 9008,1956 8934,1930 8858,1905 8781,1880 8703,1856 8624,1834 8543,1812 8461,1791
 8377,1772 8292,1753 8205,1736 8116,1721 8027,1707 7935,1695 7843,1684 7750,1676
 7657,1670 7563,1666 7470,1665 7367,1667 7267,1671 7170,1679 7077,1689 6987,1702
 6900,1717 6818,1734 6739,1753 6664,1773 6593,1795 6525,1819 6460,1843 6397,1870
 6338,1897 6281,1925 6227,1954 6175,1984 6124,2015 6076,2047 6029,2079 5984,2112
 5941,2146 5899,2179 5859,2213 5820,2247 5783,2281 5747,2315 5713,2348 5681,2381
 5650,2413 5620,2443 5593,2473 5567,2501 5543,2528 5521,2553 5501,2577 5483,2598
 5467,2617 5452,2634 5440,2649 5430,2662 5422,2672 5415,2681 5409,2688 5406,2693
 5400,2700" clip-path="url(#cp44)"
	stroke="#ff00ff" stroke-width="8px" stroke-linejoin="bevel"/>
<!-- Forward arrow to point 9585,2207 -->
<polygon points=" 9448,2179 9570,2200 9473,2124 9448,2179"
	stroke="#ff00ff" stroke-width="8px" stroke-miterlimit="8" fill="#ff00ff"/>
<!-- Line -->
<defs>
<clipPath id="cp45">
	<path clip-rule="evenodd" d="M 888,1113 H 12162 V 6312 H 888 z
		M 9525,2133 9501,2188 9640,2226 9646,2214z"/>
</clipPath>
</defs>
<polyline points=" 10575,2700 10574,2700 10573,2699 10570,2697 10566,2695 10560,2692 10552,2687
 10541,2681 10527,2674 10511,2665 10492,2654 10469,2642 10443,2628 10414,2612
 10382,2595 10347,2576 10308,2556 10267,2534 10222,2510 10174,2486 10124,2460
 10072,2433 10017,2406 9960,2377 9900,2348 9839,2318 9777,2288 9713,2258 9647,2228
 9580,2197 9512,2166 9442,2136 9372,2106 9301,2076 9228,2047 9155,2018 9081,1989
 9005,1961 8929,1934 8851,1907 8772,1881 8692,1856 8610,1832 8527,1808 8443,1786
 8357,1764 8269,1744 8179,1724 8088,1706 7995,1690 7900,1675 7803,1661 7705,1649
 7605,1639 7504,1631 7403,1625 7301,1621 7200,1620 7084,1622 6970,1627 6859,1635
 6752,1645 6649,1658 6549,1674 6454,1692 6363,1711 6275,1733 6191,1756 6111,1780
 6034,1806 5961,1833 5890,1862 5822,1891 5757,1922 5694,1953 5633,1986 5574,2019
 5517,2052 5462,2087 5409,2122 5358,2157 5308,2192 5259,2227 5213,2263 5168,2298
 5125,2333 5084,2367 5045,2400 5007,2432 4972,2463 4939,2493 4909,2521 4881,2547
 4855,2571 4832,2594 4811,2614 4793,2631 4777,2647 4764,2660 4753,2671 4744,2680
 4737,2687 4732,2692 4725,2700" clip-path="url(#cp45)"
	stroke="#ff00ff" stroke-width="8px" stroke-linejoin="bevel"/>
<!-- Forward arrow to point 9637,2217 -->
<polygon points=" 9501,2188 9622,2210 9525,2133 9501,2188"
	stroke="#ff00ff" stroke-width="8px" stroke-miterlimit="8" fill="#ff00ff"/>
<!-- Line -->
<defs>
<clipPath id="cp46">
	<path clip-rule="evenodd" d="M 888,1113 H 12162 V 6312 H 888 z
		M 9536,2144 9511,2198 9650,2237 9656,2225z"/>
</clipPath>
</defs>
<polyline points=" 10575,2700 10574,2700 10573,2699 10571,2698 10567,2695 10561,2692 10553,2688
 10543,2682 10530,2675 10515,2666 10497,2656 10475,2645 10451,2631 10424,2616
 10393,2600 10359,2582 10322,2562 10282,2541 10240,2518 10194,2494 10146,2469
 10095,2443 10041,2416 9985,2388 9928,2359 9868,2329 9806,2299 9743,2269 9678,2239
 9612,2208 9544,2177 9475,2146 9405,2116 9334,2085 9261,2055 9188,2025 9113,1996
 9038,1967 8961,1939 8883,1911 8803,1884 8723,1858 8640,1832 8557,1807 8472,1783
 8385,1760 8296,1738 8206,1716 8113,1696 8019,1677 7922,1660 7823,1643 7723,1628
 7620,1615 7515,1603 7409,1594 7302,1586 7193,1580 7084,1576 6975,1575 6855,1577
 6736,1581 6620,1588 6507,1598 6397,1610 6291,1624 6188,1640 6089,1658 5993,1677
 5901,1699 5812,1721 5726,1745 5643,1770 5564,1796 5486,1824 5412,1852 5339,1881
 5269,1911 5201,1942 5135,1974 5070,2006 5008,2039 4946,2072 4887,2106 4829,2139
 4773,2174 4718,2208 4665,2242 4613,2276 4564,2309 4516,2342 4470,2375 4426,2406
 4384,2437 4345,2466 4308,2494 4273,2521 4241,2546 4211,2569 4184,2590 4160,2609
 4139,2627 4120,2642 4104,2655 4090,2666 4079,2676 4070,2683 4063,2689 4057,2694
 4050,2700" clip-path="url(#cp46)"
	stroke="#ff00ff" stroke-width="8px" stroke-linejoin="bevel"/>
<!-- Forward arrow to point 9647,2228 -->
<polygon points=" 9511,2198 9632,2221 9536,2144 9511,2198"
	stroke="#ff00ff" stroke-width="8px" stroke-miterlimit="8" fill="#ff00ff"/>
<!-- Line -->
<defs>
<clipPath id="cp47">
	<path clip-rule="evenodd" d="M 888,1113 H 12162 V 6312 H 888 z
		M 9820,2271 9793,2325 9931,2368 9937,2356z"/>
</clipPath>
<polyline points=" 6300,2925 6750,2925" id="p0"/>
</defs>
<use xlink:href="#p0" fill="#ff0000"/>
<use xlink:href="#p0" clip-path="url(#cp47)"
	stroke="#00ffff" stroke-width="8px" stroke-linejoin="bevel"/>
<!-- Forward arrow to point 9928,2359 -->
<polygon points=" 9793,2325 9914,2352 9820,2271 9793,2325"
	stroke="#00ffff" stroke-width="8px" stroke-miterlimit="8" fill="#00ffff"/>
<!-- Line -->
<defs>
<clipPath id="cp48">
	<path clip-rule="evenodd" d="M 888,1113 H 12162 V 6312 H 888 z
		M 6948,1545 6948,1605 7091,1583 7091,1569z"/>
</clipPath>
</defs>
<polyline points=" 2475,2700 2476,2700 2477,2699 2480,2697 2484,2695 2490,2692 2498,2687 2509,2681
 2523,2674 2539,2665 2558,2654 2581,2642 2607,2628 2636,2612 2668,2595 2703,2576
 2742,2556 2783,2534 2828,2510 2876,2486 2926,2460 2978,2433 3033,2406 3090,2377
 3150,2348 3211,2318 3273,2288 3337,2258 3403,2228 3470,2197 3538,2166 3608,2136
 3678,2106 3749,2076 3822,2047 3895,2018 3969,1989 4045,1961 4121,1934 4199,1907
 4278,1881 4358,1856 4440,1832 4523,1808 4607,1786 4693,1764 4781,1744 4871,1724
 4962,1706 5055,1690 5150,1675 5247,1661 5345,1649 5445,1639 5546,1631 5647,1625
 5749,1621 5850,1620 5966,1622 6080,1627 6191,1635 6298,1645 6401,1658 6501,1674
 6596,1692 6687,1711 6775,1733 6859,1756 6939,1780 7016,1806 7089,1833 7160,1862
 7228,1891 7293,1922 7356,1953 7417,1986 7476,2019 7533,2052 7588,2087 7641,2122
 7692,2157 7742,2192 7791,2227 7837,2263 7882,2298 7925,2333 7966,2367 8005,2400
 8043,2432 8078,2463 8111,2493 8141,2521 8169,2547 8195,2571 8218,2594 8239,2614
 8257,2631 8273,2647 8286,2660 8297,2671 8306,2680 8313,2687 8318,2692 8325,2700
" clip-path="url(#cp48)"
	stroke="#00ff00" stroke-width="8px" stroke-linejoin="bevel"/>
<!-- Forward arrow to point 7084,1576 -->
<polygon points=" 6948,1605 7068,1576 6948,1545 6948,1605"
	stroke="#00ff00" stroke-width="8px" stroke-miterlimit="8" fill="#00ff00"/>
<!-- Line -->
<defs>
<clipPath id="cp49">
	<path clip-rule="evenodd" d="M 888,1113 H 12162 V 6312 H 888 z
		M 3539,2198 3514,2144 3394,2225 3400,2237z"/>
</clipPath>
</defs>
<polyline points=" 2475,2700 2476,2700 2477,2699 2479,2698 2483,2695 2489,2692 2497,2688 2507,2682
 2520,2675 2535,2666 2553,2656 2575,2645 2599,2631 2626,2616 2657,2600 2691,2582
 2728,2562 2768,2541 2810,2518 2856,2494 2904,2469 2955,2443 3009,2416 3065,2388
 3122,2359 3182,2329 3244,2299 3307,2269 3372,2239 3438,2208 3506,2177 3575,2146
 3645,2116 3716,2085 3789,2055 3862,2025 3937,1996 4012,1967 4089,1939 4167,1911
 4247,1884 4327,1858 4410,1832 4493,1807 4578,1783 4665,1760 4754,1738 4844,1716
 4937,1696 5031,1677 5128,1660 5227,1643 5327,1628 5430,1615 5535,1603 5641,1594
 5748,1586 5857,1580 5966,1576 6075,1575 6195,1577 6314,1581 6430,1588 6543,1598
 6653,1610 6759,1624 6862,1640 6961,1658 7057,1677 7149,1699 7238,1721 7324,1745
 7407,1770 7486,1796 7564,1824 7638,1852 7711,1881 7781,1911 7849,1942 7915,1974
 7980,2006 8042,2039 8104,2072 8163,2106 8221,2139 8277,2174 8332,2208 8385,2242
 8437,2276 8486,2309 8534,2342 8580,2375 8624,2406 8666,2437 8705,2466 8742,2494
 8777,2521 8809,2546 8839,2569 8866,2590 8890,2609 8911,2627 8930,2642 8946,2655
 8960,2666 8971,2676 8980,2683 8987,2689 8993,2694 9000,2700" clip-path="url(#cp49)"
	stroke="#00ff00" stroke-width="8px" stroke-linejoin="bevel"/>
<!-- Forward arrow to point 3403,2228 -->
<polygon points=" 3514,2144 3418,2221 3539,2198 3514,2144"
	stroke="#00ff00" stroke-width="8px" stroke-miterlimit="8" fill="#00ff00"/>
<!-- Line -->
<defs>
<clipPath id="cp50">
	<path clip-rule="evenodd" d="M 888,1113 H 12162 V 6312 H 888 z
		M 3508,2208 3483,2154 3363,2236 3369,2248z"/>
</clipPath>
</defs>
<polyline points=" 7650,2700 7649,2700 7648,2699 7645,2697 7641,2695 7635,2692 7627,2687 7617,2682
 7603,2675 7588,2666 7569,2656 7547,2644 7522,2631 7494,2616 7463,2599 7428,2582
 7391,2562 7351,2542 7308,2520 7262,2497 7214,2473 7164,2448 7111,2422 7056,2396
 7000,2369 6942,2342 6882,2314 6820,2287 6758,2259 6693,2231 6628,2204 6562,2176
 6494,2149 6425,2123 6355,2097 6284,2071 6212,2046 6138,2021 6062,1997 5986,1974
 5908,1951 5827,1930 5746,1909 5662,1889 5576,1870 5488,1852 5398,1836 5306,1820
 5211,1806 5115,1793 5016,1782 4915,1773 4813,1765 4709,1760 4605,1756 4500,1755
 4388,1756 4277,1760 4169,1767 4063,1776 3961,1786 3861,1799 3765,1813 3672,1829
 3583,1847 3497,1866 3414,1886 3333,1907 3256,1930 3181,1953 3108,1977 3038,2003
 2970,2029 2903,2055 2839,2083 2776,2111 2715,2139 2656,2168 2598,2197 2541,2227
 2486,2257 2433,2287 2381,2316 2331,2346 2282,2375 2236,2404 2191,2432 2148,2459
 2108,2486 2069,2511 2033,2535 2000,2558 1969,2579 1941,2598 1916,2616 1894,2632
 1874,2646 1857,2658 1842,2669 1830,2677 1821,2684 1813,2690 1808,2694 1800,2700
" clip-path="url(#cp50)"
	stroke="#ff0000" stroke-width="8px" stroke-linejoin="bevel"/>
<!-- Forward arrow to point 3372,2239 -->
<polygon points=" 3483,2154 3387,2232 3508,2208 3483,2154"
	stroke="#ff0000" stroke-width="8px" stroke-miterlimit="8" fill="#ff0000"/>
<!-- Line -->
<defs>
<clipPath id="cp51">
	<path clip-rule="evenodd" d="M 888,1113 H 12162 V 6312 H 888 z
		M 6645,2178 6621,2233 6762,2268 6767,2255z"/>
</clipPath>
</defs>
<polyline points=" 5400,2700 5401,2700 5402,2699 5405,2697 5410,2695 5417,2692 5427,2687 5439,2682
 5455,2674 5473,2666 5495,2656 5520,2644 5549,2631 5581,2616 5617,2600 5656,2583
 5698,2564 5744,2544 5792,2522 5843,2500 5896,2477 5952,2453 6010,2428 6069,2403
 6131,2378 6194,2352 6258,2326 6323,2300 6390,2274 6457,2248 6525,2223 6594,2197
 6664,2172 6734,2148 6805,2124 6877,2100 6950,2078 7023,2055 7098,2034 7173,2013
 7249,1993 7327,1974 7405,1956 7484,1939 7565,1923 7647,1908 7730,1894 7814,1882
 7899,1871 7984,1862 8070,1855 8156,1850 8241,1846 8325,1845 8426,1847 8523,1852
 8615,1860 8704,1870 8787,1884 8865,1899 8939,1917 9007,1936 9072,1957 9133,1979
 9189,2003 9243,2028 9293,2054 9340,2082 9384,2110 9426,2139 9465,2169 9502,2200
 9538,2231 9571,2262 9603,2294 9633,2326 9661,2358 9688,2389 9713,2420 9737,2451
 9758,2480 9779,2508 9797,2535 9814,2560 9830,2583 9843,2605 9855,2624 9866,2641
 9874,2655 9882,2668 9887,2678 9892,2685 9895,2691 9900,2700" clip-path="url(#cp51)"
	stroke="#00ffff" stroke-width="8px" stroke-linejoin="bevel"/>
<!-- Forward arrow to point 6758,2259 -->
<polygon points=" 6621,2233 6743,2253 6645,2178 6621,2233"
	stroke="#00ffff" stroke-width="8px" stroke-miterlimit="8" fill="#00ffff"/>
<!-- Line -->
<defs>
<clipPath id="cp52">
	<path clip-rule="evenodd" d="M 888,1113 H 12162 V 6312 H 888 z
		M 6528,2253 6506,2197 6381,2270 6386,2283z"/>
</clipPath>
</defs>
<polyline points=" 5400,2700 5401,2700 5402,2699 5405,2698 5409,2695 5416,2692 5425,2688 5437,2683
 5451,2676 5468,2668 5489,2658 5513,2647 5540,2634 5571,2620 5604,2604 5642,2587
 5682,2569 5726,2549 5772,2528 5821,2506 5873,2483 5927,2460 5984,2435 6042,2410
 6102,2385 6164,2359 6228,2333 6293,2306 6359,2280 6426,2254 6495,2227 6564,2201
 6634,2176 6706,2150 6778,2125 6850,2101 6924,2077 6999,2053 7075,2031 7151,2008
 7229,1987 7308,1966 7389,1947 7471,1928 7554,1910 7638,1893 7724,1877 7812,1862
 7901,1849 7992,1836 8083,1826 8176,1817 8269,1810 8363,1804 8457,1801 8550,1800
 8657,1802 8761,1806 8861,1813 8958,1823 9050,1835 9138,1849 9222,1864 9302,1882
 9378,1901 9450,1922 9518,1943 9584,1966 9645,1991 9705,2016 9761,2042 9815,2069
 9866,2097 9916,2125 9963,2154 10009,2184 10053,2214 10095,2245 10135,2275 10174,2306
 10211,2337 10247,2367 10281,2397 10313,2427 10344,2456 10373,2483 10400,2510
 10425,2535 10448,2559 10469,2581 10488,2601 10505,2620 10519,2636 10532,2651
 10543,2663 10552,2673 10559,2682 10565,2688 10575,2700" clip-path="url(#cp52)"
	stroke="#00ffff" stroke-width="8px" stroke-linejoin="bevel"/>
<!-- Forward arrow to point 6390,2274 -->
<polygon points=" 6506,2197 6405,2268 6528,2253 6506,2197"
	stroke="#00ffff" stroke-width="8px" stroke-miterlimit="8" fill="#00ffff"/>
<!-- Line -->
<defs>
<clipPath id="cp53">
	<path clip-rule="evenodd" d="M 888,1113 H 12162 V 6312 H 888 z
		M 6497,2259 6475,2203 6350,2276 6355,2289z"/>
</clipPath>
</defs>
<polyline points=" 5400,2700 5401,2700 5402,2699 5405,2698 5409,2696 5415,2693 5423,2689 5434,2683
 5448,2677 5464,2669 5483,2660 5506,2649 5532,2637 5561,2623 5593,2608 5628,2592
 5667,2574 5708,2555 5753,2534 5801,2513 5851,2490 5903,2467 5958,2442 6015,2418
 6075,2392 6136,2366 6198,2340 6262,2313 6328,2287 6395,2260 6463,2233 6533,2207
 6603,2180 6674,2154 6747,2128 6820,2103 6894,2078 6970,2053 7046,2029 7124,2006
 7203,1983 7283,1961 7365,1940 7448,1920 7532,1900 7618,1881 7706,1863 7796,1846
 7887,1831 7980,1816 8075,1803 8172,1791 8270,1780 8370,1772 8471,1765 8572,1759
 8674,1756 8775,1755 8891,1756 9005,1761 9116,1768 9223,1777 9326,1789 9426,1802
 9521,1818 9612,1835 9700,1854 9784,1874 9864,1895 9941,1918 10014,1942 10085,1967
 10153,1992 10218,2019 10281,2047 10342,2075 10401,2104 10458,2133 10513,2163
 10566,2194 10617,2225 10667,2256 10716,2287 10762,2318 10807,2348 10850,2379
 10891,2408 10930,2438 10968,2466 11003,2493 11036,2519 11066,2543 11094,2566
 11120,2587 11143,2607 11164,2624 11182,2640 11198,2654 11211,2665 11222,2675
 11231,2683 11238,2689 11250,2700" clip-path="url(#cp53)"
	stroke="#00ffff" stroke-width="8px" stroke-linejoin="bevel"/>
<!-- Forward arrow to point 6359,2280 -->
<polygon points=" 6475,2203 6374,2274 6497,2259 6475,2203"
	stroke="#00ffff" stroke-width="8px" stroke-miterlimit="8" fill="#00ffff"/>
<!-- Line -->
<defs>
<clipPath id="cp54">
	<path clip-rule="evenodd" d="M 888,1113 H 12162 V 6312 H 888 z
		M 6466,2264 6443,2208 6319,2283 6324,2296z"/>
</clipPath>
</defs>
<polyline points=" 5400,2700 5401,2700 5402,2699 5404,2698 5408,2696 5414,2693 5422,2689 5432,2684
 5445,2678 5460,2670 5478,2662 5500,2651 5524,2640 5551,2626 5582,2612 5616,2596
 5653,2578 5693,2560 5735,2540 5781,2519 5829,2497 5880,2474 5934,2450 5990,2425
 6047,2400 6107,2374 6169,2347 6232,2321 6297,2294 6363,2267 6431,2240 6500,2213
 6570,2186 6641,2159 6714,2133 6787,2106 6862,2081 6937,2055 7014,2030 7092,2006
 7172,1982 7252,1959 7335,1936 7418,1914 7503,1893 7590,1873 7679,1853 7769,1834
 7862,1817 7956,1800 8053,1785 8152,1770 8252,1757 8355,1745 8460,1735 8566,1726
 8673,1719 8782,1714 8891,1711 9000,1710 9120,1711 9239,1715 9355,1721 9468,1730
 9578,1741 9684,1753 9787,1767 9886,1783 9982,1800 10074,1819 10163,1839 10249,1860
 10332,1882 10411,1905 10489,1929 10563,1954 10636,1979 10706,2006 10774,2033
 10840,2061 10905,2089 10967,2118 11029,2147 11088,2177 11146,2207 11202,2237
 11257,2267 11310,2297 11362,2327 11411,2356 11459,2385 11505,2414 11549,2442
 11591,2468 11630,2494 11667,2519 11702,2542 11734,2564 11764,2584 11791,2603
 11815,2620 11836,2635 11855,2649 11871,2661 11885,2670 11896,2679 11905,2685
 11912,2691 11918,2694 11925,2700" clip-path="url(#cp54)"
	stroke="#00ffff" stroke-width="8px" stroke-linejoin="bevel"/>
<!-- Forward arrow to point 6328,2287 -->
<polygon points=" 6443,2208 6343,2281 6466,2264 6443,2208"
	stroke="#00ffff" stroke-width="8px" stroke-miterlimit="8" fill="#00ffff"/>
<!-- Line -->
<defs>
<clipPath id="cp55">
	<path clip-rule="evenodd" d="M 888,1113 H 12162 V 6312 H 888 z
		M 6434,2270 6412,2215 6288,2290 6293,2303z"/>
</clipPath>
</defs>
<polyline points=" 6075,2700 6076,2700 6078,2698 6082,2696 6088,2693 6096,2689 6107,2683 6122,2675
 6140,2665 6161,2654 6186,2641 6214,2627 6245,2611 6280,2593 6317,2574 6357,2554
 6400,2533 6444,2512 6491,2489 6539,2467 6588,2444 6639,2421 6691,2398 6744,2376
 6798,2354 6852,2332 6908,2311 6964,2290 7022,2270 7080,2251 7139,2232 7200,2215
 7262,2198 7325,2183 7390,2168 7457,2155 7524,2144 7593,2134 7663,2126 7734,2120
 7805,2116 7875,2115 7955,2117 8032,2122 8105,2130 8174,2140 8238,2153 8298,2168
 8354,2185 8407,2203 8456,2223 8501,2244 8544,2267 8584,2290 8622,2314 8658,2339
 8691,2365 8723,2391 8753,2417 8782,2444 8809,2471 8834,2497 8858,2523 8880,2547
 8900,2571 8919,2593 8935,2613 8950,2632 8962,2648 8972,2662 8981,2673 8988,2683
 8993,2690 9000,2700" clip-path="url(#cp55)"
	stroke="#00ffff" stroke-width="8px" stroke-linejoin="bevel"/>
<!-- Forward arrow to point 6297,2294 -->
<polygon points=" 6412,2215 6312,2288 6434,2270 6412,2215"
	stroke="#00ffff" stroke-width="8px" stroke-miterlimit="8" fill="#00ffff"/>
<!-- Line -->
<defs>
<clipPath id="cp56">
	<path clip-rule="evenodd" d="M 888,1113 H 12162 V 6312 H 888 z
		M 7161,2256 7142,2199 7013,2266 7018,2279z"/>
</clipPath>
</defs>
<polyline points=" 6075,2700 6076,2699 6078,2698 6083,2696 6089,2692 6099,2687 6112,2679 6128,2671
 6147,2660 6170,2647 6197,2633 6226,2618 6259,2601 6294,2583 6331,2563 6371,2544
 6412,2524 6455,2503 6499,2483 6544,2462 6590,2442 6637,2422 6686,2403 6735,2384
 6785,2367 6836,2349 6889,2333 6943,2318 6998,2304 7055,2291 7114,2279 7174,2270
 7236,2261 7299,2255 7362,2251 7425,2250 7494,2252 7560,2257 7623,2264 7682,2274
 7736,2286 7787,2301 7834,2316 7878,2333 7919,2352 7957,2371 7992,2391 8026,2413
 8058,2435 8087,2457 8116,2480 8142,2503 8167,2526 8191,2549 8212,2571 8232,2592
 8250,2611 8267,2630 8281,2646 8293,2660 8303,2672 8310,2681 8316,2689 8325,2700
" clip-path="url(#cp56)"
	stroke="#00ffff" stroke-width="8px" stroke-linejoin="bevel"/>
<!-- Forward arrow to point 7022,2270 -->
<polygon points=" 7142,2199 7037,2265 7161,2256 7142,2199"
	stroke="#00ffff" stroke-width="8px" stroke-miterlimit="8" fill="#00ffff"/>
<!-- Line -->
<defs>
<clipPath id="cp57">
	<path clip-rule="evenodd" d="M 888,1113 H 12162 V 6312 H 888 z
		M 7161,2256 7142,2199 7013,2266 7018,2279z"/>
</clipPath>
</defs>
<polyline points=" 6075,2700 6076,2699 6079,2698 6083,2695 6090,2691 6101,2685 6114,2677 6130,2667
 6150,2655 6173,2642 6198,2628 6226,2613 6256,2596 6288,2579 6321,2562 6356,2545
 6392,2528 6428,2511 6466,2495 6505,2479 6545,2464 6587,2450 6630,2437 6674,2425
 6720,2414 6768,2404 6818,2396 6870,2390 6922,2386 6975,2385 7035,2387 7091,2392
 7145,2400 7194,2410 7239,2422 7281,2436 7319,2451 7355,2468 7388,2485 7420,2504
 7449,2523 7476,2542 7502,2562 7527,2582 7549,2601 7570,2620 7588,2637 7604,2653
 7618,2666 7629,2677 7637,2686 7650,2700" clip-path="url(#cp57)"
	stroke="#00ffff" stroke-width="8px" stroke-linejoin="bevel"/>
<!-- Forward arrow to point 0,0 -->
<polyline points=""
	stroke="#00ffff" stroke-width="8px" stroke-miterlimit="8" fill="#00ffff"/>
<!-- Line -->
<defs>
<clipPath id="cp58">
	<path clip-rule="evenodd" d="M 888,1113 H 12162 V 6312 H 888 z
		M 7059,2413 7058,2353 6915,2379 6915,2393z"/>
</clipPath>
</defs>
<polyline points=" 2475,2700 2476,2700 2477,2699 2480,2697 2484,2695 2491,2691 2500,2686 2512,2680
 2526,2672 2543,2663 2564,2652 2588,2639 2615,2624 2646,2608 2679,2590 2717,2570
 2757,2549 2801,2526 2847,2502 2896,2477 2948,2451 3002,2424 3059,2396 3117,2367
 3177,2337 3239,2308 3303,2277 3368,2247 3434,2217 3501,2187 3570,2156 3639,2127
 3709,2097 3781,2068 3853,2039 3925,2011 3999,1983 4074,1956 4150,1930 4226,1905
 4304,1880 4383,1856 4464,1834 4546,1812 4629,1791 4713,1772 4799,1753 4887,1736
 4976,1721 5067,1707 5158,1695 5251,1684 5344,1676 5438,1670 5532,1666 5625,1665
 5732,1667 5836,1672 5936,1680 6033,1691 6125,1705 6213,1721 6297,1739 6377,1759
 6453,1781 6525,1805 6593,1830 6659,1856 6720,1884 6780,1913 6836,1943 6890,1974
 6941,2006 6991,2039 7038,2073 7084,2107 7128,2141 7170,2177 7210,2212 7249,2247
 7286,2282 7322,2318 7356,2352 7388,2386 7419,2419 7448,2451 7475,2482 7500,2511
 7523,2538 7544,2563 7563,2587 7580,2608 7594,2627 7607,2643 7618,2657 7627,2669
 7634,2679 7640,2686 7644,2692 7650,2700" clip-path="url(#cp58)"
	stroke="#00ff00" stroke-width="8px" stroke-linejoin="bevel"/>
<!-- Forward arrow to point 6922,2386 -->
<polygon points=" 7058,2353 6938,2386 7059,2413 7058,2353"
	stroke="#00ff00" stroke-width="8px" stroke-miterlimit="8" fill="#00ff00"/>
<!-- Line -->
<defs>
<clipPath id="cp59">
	<path clip-rule="evenodd" d="M 888,1113 H 12162 V 6312 H 888 z
		M 3571,2189 3546,2134 3425,2214 3431,2226z"/>
</clipPath>
</defs>
<polyline points=" 7650,2700 7649,2700 7648,2699 7645,2697 7641,2695 7634,2691 7626,2687 7614,2681
 7600,2673 7583,2664 7563,2653 7540,2641 7514,2627 7484,2612 7452,2595 7416,2576
 7377,2557 7335,2535 7290,2513 7243,2489 7194,2465 7142,2440 7088,2414 7032,2388
 6975,2361 6916,2334 6855,2306 6794,2279 6731,2252 6666,2224 6601,2197 6535,2171
 6467,2145 6399,2119 6329,2094 6259,2069 6187,2045 6114,2021 6039,1999 5963,1977
 5886,1956 5807,1936 5726,1917 5643,1899 5559,1882 5473,1866 5384,1852 5294,1839
 5202,1828 5108,1818 5013,1810 4917,1805 4821,1801 4725,1800 4618,1802 4513,1806
 4411,1813 4312,1823 4216,1835 4125,1849 4037,1864 3952,1882 3872,1901 3795,1922
 3721,1943 3650,1966 3582,1991 3517,2016 3454,2042 3393,2069 3334,2097 3278,2125
 3223,2154 3170,2184 3119,2214 3069,2245 3021,2275 2974,2306 2929,2337 2886,2367
 2845,2397 2805,2427 2767,2456 2731,2483 2698,2510 2666,2535 2638,2559 2611,2581
 2587,2601 2565,2620 2546,2636 2530,2651 2516,2663 2505,2673 2495,2682 2488,2688
 2483,2693 2475,2700" clip-path="url(#cp59)"
	stroke="#ff0000" stroke-width="8px" stroke-linejoin="bevel"/>
<!-- Forward arrow to point 3434,2217 -->
<polygon points=" 3546,2134 3449,2210 3571,2189 3546,2134"
	stroke="#ff0000" stroke-width="8px" stroke-miterlimit="8" fill="#ff0000"/>
<!-- Line -->
<defs>
<clipPath id="cp60">
	<path clip-rule="evenodd" d="M 888,1113 H 12162 V 6312 H 888 z
		M 6618,2171 6594,2226 6735,2261 6740,2248z"/>
</clipPath>
</defs>
<polyline points=" 1800,2700 1802,2699 1804,2698 1807,2697 1812,2694 1818,2691 1827,2687 1838,2681
 1851,2675 1867,2667 1886,2658 1907,2647 1932,2635 1959,2622 1990,2607 2023,2591
 2060,2573 2101,2554 2144,2533 2190,2511 2240,2488 2292,2464 2348,2438 2406,2411
 2466,2383 2530,2354 2596,2324 2664,2294 2734,2262 2806,2230 2881,2198 2957,2165
 3034,2132 3114,2098 3194,2065 3277,2031 3360,1997 3445,1963 3530,1929 3617,1895
 3705,1862 3794,1829 3884,1796 3975,1763 4067,1731 4160,1699 4255,1668 4350,1637
 4446,1607 4543,1578 4642,1549 4742,1520 4843,1493 4946,1466 5050,1440 5156,1415
 5263,1390 5372,1367 5483,1344 5596,1323 5710,1303 5826,1283 5944,1265 6064,1248
 6186,1233 6309,1219 6434,1207 6560,1196 6687,1187 6815,1180 6943,1174 7072,1171
 7200,1170 7347,1171 7492,1176 7634,1183 7773,1192 7909,1204 8041,1218 8169,1234
 8293,1253 8413,1272 8530,1294 8642,1317 8751,1342 8857,1368 8958,1395 9057,1423
 9152,1453 9245,1484 9334,1515 9421,1548 9506,1581 9588,1616 9668,1651 9746,1686
 9822,1723 9895,1760 9967,1798 10038,1836 10106,1874 10173,1913 10238,1952 10302,1991
 10364,2031 10424,2070 10483,2109 10540,2147 10595,2186 10648,2223 10699,2260
 10749,2297 10796,2332 10841,2366 10884,2399 10924,2430 10962,2460 10998,2489
 11031,2516 11062,2541 11090,2564 11116,2585 11139,2604 11159,2622 11177,2637
 11193,2650 11206,2662 11218,2672 11227,2680 11234,2686 11240,2691 11250,2700
" clip-path="url(#cp60)"
	stroke="#00ff00" stroke-width="8px" stroke-linejoin="bevel"/>
<!-- Forward arrow to point 6731,2252 -->
<polygon points=" 6594,2226 6716,2246 6618,2171 6594,2226"
	stroke="#00ff00" stroke-width="8px" stroke-miterlimit="8" fill="#00ff00"/>
<!-- Line -->
<defs>
<clipPath id="cp61">
	<path clip-rule="evenodd" d="M 888,1113 H 12162 V 6312 H 888 z
		M 2871,2234 2846,2179 2725,2259 2731,2271z"/>
</clipPath>
</defs>
<polyline points=" 1800,2700 1801,2699 1803,2698 1807,2697 1811,2694 1817,2691 1826,2687 1836,2682
 1848,2676 1863,2668 1881,2660 1901,2650 1925,2638 1951,2625 1980,2611 2012,2595
 2047,2578 2086,2560 2127,2540 2172,2519 2219,2496 2270,2472 2323,2447 2379,2421
 2438,2393 2499,2365 2563,2336 2629,2306 2698,2275 2768,2244 2841,2211 2915,2179
 2991,2146 3069,2112 3149,2079 3229,2045 3312,2011 3395,1977 3480,1943 3566,1909
 3653,1875 3741,1842 3831,1808 3921,1775 4012,1743 4105,1710 4198,1678 4293,1647
 4389,1616 4486,1586 4584,1556 4683,1526 4784,1498 4886,1470 4990,1443 5095,1416
 5202,1391 5311,1366 5421,1342 5533,1318 5647,1296 5763,1275 5881,1255 6001,1236
 6123,1218 6247,1202 6372,1187 6500,1173 6629,1161 6759,1150 6891,1141 7024,1134
 7158,1129 7291,1126 7425,1125 7573,1126 7720,1130 7864,1137 8006,1145 8145,1156
 8281,1169 8413,1184 8542,1201 8667,1219 8789,1239 8907,1261 9021,1284 9133,1308
 9241,1333 9346,1360 9448,1388 9547,1416 9643,1446 9737,1476 9828,1508 9917,1540
 10004,1573 10088,1607 10171,1641 10252,1676 10331,1712 10409,1748 10484,1785
 10558,1822 10631,1859 10702,1897 10771,1935 10839,1973 10905,2011 10970,2049
 11033,2087 11095,2124 11154,2161 11212,2198 11268,2234 11322,2270 11375,2304
 11425,2338 11472,2370 11518,2402 11561,2432 11602,2460 11640,2488 11676,2513
 11709,2537 11739,2560 11767,2580 11793,2599 11816,2616 11836,2631 11854,2645
 11869,2657 11882,2667 11893,2675 11902,2682 11910,2688 11915,2692 11925,2700
" clip-path="url(#cp61)"
	stroke="#00ff00" stroke-width="8px" stroke-linejoin="bevel"/>
<!-- Forward arrow to point 2734,2262 -->
<polygon points=" 2846,2179 2749,2255 2871,2234 2846,2179"
	stroke="#00ff00" stroke-width="8px" stroke-miterlimit="8" fill="#00ff00"/>
<!-- Line -->
<defs>
<clipPath id="cp62">
	<path clip-rule="evenodd" d="M 888,1113 H 12162 V 6312 H 888 z
		M 2835,2247 2810,2192 2689,2272 2695,2284z"/>
</clipPath>
</defs>
<polyline points=" 1800,2700 1802,2699 1804,2698 1807,2696 1812,2694 1820,2690 1829,2686 1840,2680
 1854,2673 1871,2665 1891,2656 1913,2645 1939,2632 1968,2618 2000,2603 2036,2586
 2074,2568 2116,2548 2162,2527 2210,2504 2262,2480 2316,2455 2374,2428 2434,2401
 2497,2372 2562,2343 2630,2312 2700,2281 2772,2250 2846,2217 2922,2184 2999,2151
 3079,2118 3159,2084 3241,2050 3325,2016 3409,1983 3495,1949 3582,1915 3669,1882
 3758,1849 3847,1816 3938,1784 4030,1752 4122,1720 4216,1689 4310,1659 4405,1629
 4502,1600 4600,1571 4699,1543 4799,1516 4901,1490 5003,1464 5108,1439 5214,1416
 5321,1393 5431,1371 5541,1350 5654,1331 5768,1312 5884,1295 6001,1279 6120,1265
 6240,1253 6361,1242 6484,1232 6606,1225 6730,1219 6853,1216 6975,1215 7116,1217
 7254,1221 7389,1228 7521,1238 7649,1250 7774,1265 7894,1281 8010,1300 8122,1320
 8230,1342 8334,1366 8435,1391 8531,1418 8625,1446 8714,1475 8801,1505 8885,1536
 8966,1568 9044,1601 9120,1636 9194,1670 9265,1706 9334,1742 9401,1780 9467,1817
 9530,1855 9592,1894 9652,1933 9711,1972 9767,2011 9823,2050 9876,2090 9928,2129
 9978,2167 10027,2206 10073,2243 10118,2280 10161,2316 10202,2351 10241,2385 10278,2418
 10313,2449 10345,2478 10375,2506 10403,2532 10429,2556 10452,2579 10473,2599
 10492,2617 10509,2633 10523,2647 10535,2660 10545,2670 10554,2678 10561,2685
 10566,2690 10575,2700" clip-path="url(#cp62)"
	stroke="#00ff00" stroke-width="8px" stroke-linejoin="bevel"/>
<!-- Forward arrow to point 2698,2275 -->
<polygon points=" 2810,2192 2713,2268 2835,2247 2810,2192"
	stroke="#00ff00" stroke-width="8px" stroke-miterlimit="8" fill="#00ff00"/>
<!-- Line -->
<defs>
<clipPath id="cp63">
	<path clip-rule="evenodd" d="M 888,1113 H 12162 V 6312 H 888 z
		M 2909,2222 2884,2167 2763,2247 2769,2259z"/>
</clipPath>
</defs>
<polyline points=" 3150,2700 3151,2699 3154,2698 3158,2695 3165,2691 3176,2685 3189,2677 3205,2667
 3225,2655 3248,2642 3273,2628 3301,2613 3331,2596 3363,2579 3396,2562 3431,2545
 3467,2528 3503,2511 3541,2495 3580,2479 3620,2464 3662,2450 3705,2437 3749,2425
 3795,2414 3843,2404 3893,2396 3945,2390 3997,2386 4050,2385 4110,2387 4166,2392
 4220,2400 4269,2410 4314,2422 4356,2436 4394,2451 4430,2468 4463,2485 4495,2504
 4524,2523 4551,2542 4577,2562 4602,2582 4624,2601 4645,2620 4663,2637 4679,2653
 4693,2666 4704,2677 4712,2686 4725,2700" clip-path="url(#cp63)"
	stroke="#00ff00" stroke-width="8px" stroke-linejoin="bevel"/>
<!-- Forward arrow to point 2772,2250 -->
<polygon points=" 2884,2167 2787,2243 2909,2222 2884,2167"
	stroke="#00ff00" stroke-width="8px" stroke-miterlimit="8" fill="#00ff00"/>
<!-- Line -->
<defs>
<clipPath id="cp64">
	<path clip-rule="evenodd" d="M 888,1113 H 12162 V 6312 H 888 z
		M 2909,2222 2884,2167 2763,2247 2769,2259z"/>
</clipPath>
</defs>
<polyline points=" 3150,2700 3151,2699 3153,2698 3158,2696 3164,2692 3174,2687 3187,2679 3203,2671
 3222,2660 3245,2647 3272,2633 3301,2618 3334,2601 3369,2583 3406,2563 3446,2544
 3487,2524 3530,2503 3574,2483 3619,2462 3665,2442 3712,2422 3761,2403 3810,2384
 3860,2367 3911,2349 3964,2333 4018,2318 4073,2304 4130,2291 4189,2279 4249,2270
 4311,2261 4374,2255 4437,2251 4500,2250 4569,2252 4635,2257 4698,2264 4757,2274
 4811,2286 4862,2301 4909,2316 4953,2333 4994,2352 5032,2371 5067,2391 5101,2413
 5133,2435 5162,2457 5191,2480 5217,2503 5242,2526 5266,2549 5287,2571 5307,2592
 5325,2611 5342,2630 5356,2646 5368,2660 5378,2672 5385,2681 5391,2689 5400,2700
" clip-path="url(#cp64)"
	stroke="#00ff00" stroke-width="8px" stroke-linejoin="bevel"/>
<!-- Forward arrow to point 0,0 -->
<polyline points=""
	stroke="#00ff00" stroke-width="8px" stroke-miterlimit="8" fill="#00ff00"/>
<!-- Line -->
<defs>
<clipPath id="cp65">
	<path clip-rule="evenodd" d="M 888,1113 H 12162 V 6312 H 888 z
		M 4212,2303 4199,2244 4065,2299 4068,2312z"/>
</clipPath>
</defs>
<polyline points=" 4050,2700 4049,2700 4047,2698 4043,2696 4037,2693 4029,2689 4018,2683 4003,2675
 3985,2665 3964,2654 3939,2641 3911,2627 3880,2611 3845,2593 3808,2574 3768,2554
 3725,2533 3681,2512 3634,2489 3586,2467 3537,2444 3486,2421 3434,2398 3381,2376
 3327,2354 3273,2332 3217,2311 3161,2290 3103,2270 3045,2251 2986,2232 2925,2215
 2863,2198 2800,2183 2735,2168 2668,2155 2601,2144 2532,2134 2462,2126 2391,2120
 2320,2116 2250,2115 2170,2117 2093,2122 2020,2130 1951,2140 1887,2153 1827,2168
 1771,2185 1718,2203 1669,2223 1624,2244 1581,2267 1541,2290 1503,2314 1467,2339
 1434,2365 1402,2391 1372,2417 1343,2444 1316,2471 1291,2497 1267,2523 1245,2547
 1225,2571 1206,2593 1190,2613 1175,2632 1163,2648 1153,2662 1144,2673 1137,2683
 1132,2690 1125,2700" clip-path="url(#cp65)"
	stroke="#00ffff" stroke-width="8px" stroke-linejoin="bevel"/>
<!-- Forward arrow to point 4073,2304 -->
<polygon points=" 4199,2244 4089,2300 4212,2303 4199,2244"
	stroke="#00ffff" stroke-width="8px" stroke-miterlimit="8" fill="#00ffff"/>
<!-- Line -->
<defs>
<clipPath id="cp66">
	<path clip-rule="evenodd" d="M 888,1113 H 12162 V 6312 H 888 z
		M 2983,2199 2964,2256 3107,2279 3112,2266z"/>
</clipPath>
</defs>
<polyline points=" 4050,2700 4049,2699 4047,2698 4042,2696 4036,2692 4026,2687 4013,2679 3997,2671
 3978,2660 3955,2647 3928,2633 3899,2618 3866,2601 3831,2583 3794,2563 3754,2544
 3713,2524 3670,2503 3626,2483 3581,2462 3535,2442 3488,2422 3439,2403 3390,2384
 3340,2367 3289,2349 3236,2333 3182,2318 3127,2304 3070,2291 3011,2279 2951,2270
 2889,2261 2826,2255 2763,2251 2700,2250 2631,2252 2565,2257 2502,2264 2443,2274
 2389,2286 2338,2301 2291,2316 2247,2333 2206,2352 2168,2371 2133,2391 2099,2413
 2067,2435 2038,2457 2009,2480 1983,2503 1958,2526 1934,2549 1913,2571 1893,2592
 1875,2611 1858,2630 1844,2646 1832,2660 1822,2672 1815,2681 1809,2689 1800,2700
" clip-path="url(#cp66)"
	stroke="#00ffff" stroke-width="8px" stroke-linejoin="bevel"/>
<!-- Forward arrow to point 3103,2270 -->
<polygon points=" 2964,2256 3088,2265 2983,2199 2964,2256"
	stroke="#00ffff" stroke-width="8px" stroke-miterlimit="8" fill="#00ffff"/>
<!-- Line -->
<defs>
<clipPath id="cp67">
	<path clip-rule="evenodd" d="M 888,1113 H 12162 V 6312 H 888 z
		M 2983,2199 2964,2256 3107,2279 3112,2266z"/>
</clipPath>
</defs>
<polyline points=" 4050,2700 4049,2699 4046,2698 4042,2695 4035,2691 4024,2685 4011,2677 3995,2667
 3975,2655 3952,2642 3927,2628 3899,2613 3869,2596 3837,2579 3804,2562 3769,2545
 3733,2528 3697,2511 3659,2495 3620,2479 3580,2464 3538,2450 3495,2437 3451,2425
 3405,2414 3357,2404 3307,2396 3255,2390 3203,2386 3150,2385 3090,2387 3034,2392
 2980,2400 2931,2410 2886,2422 2844,2436 2806,2451 2770,2468 2737,2485 2705,2504
 2676,2523 2649,2542 2623,2562 2598,2582 2576,2601 2555,2620 2537,2637 2521,2653
 2507,2666 2496,2677 2488,2686 2475,2700" clip-path="url(#cp67)"
	stroke="#00ffff" stroke-width="8px" stroke-linejoin="bevel"/>
<!-- Forward arrow to point 0,0 -->
<polyline points=""
	stroke="#00ffff" stroke-width="8px" stroke-miterlimit="8" fill="#00ffff"/>
<!-- Line -->
<defs>
<clipPath id="cp68">
	<path clip-rule="evenodd" d="M 888,1113 H 12162 V 6312 H 888 z
		M 3278,2357 3266,2416 3410,2422 3413,2409z"/>
</clipPath>
</defs>
<polyline points=" 3375,2925 3825,2925" clip-path="url(#cp68)"
	stroke="#00ff00" stroke-width="8px" stroke-linejoin="bevel"/>
<!-- Forward arrow to point 3405,2414 -->
<polygon points=" 3266,2416 3389,2411 3278,2357 3266,2416"
	stroke="#00ff00" stroke-width="8px" stroke-miterlimit="8" fill="#00ff00"/>
<!-- Line -->
<defs>
<clipPath id="cp69">
	<path clip-rule="evenodd" d="M 888,1113 H 12162 V 6312 H 888 z
		M 1733,2730 1778,2769 1854,2645 1843,2636z"/>
</clipPath>
</defs>
<polyline points=" 4050,2700 4049,2699 4046,2697 4041,2693 4034,2688 4024,2680 4011,2671 3995,2660
 3978,2648 3959,2635 3937,2621 3915,2608 3891,2595 3867,2582 3840,2570 3812,2559
 3783,2548 3751,2539 3717,2531 3680,2525 3641,2521 3600,2520 3559,2521 3520,2525
 3483,2531 3449,2539 3417,2548 3388,2559 3360,2570 3333,2582 3309,2595 3285,2608
 3262,2621 3241,2635 3222,2648 3205,2660 3189,2671 3176,2680 3166,2688 3150,2700
" clip-path="url(#cp69)"
	stroke="#00ffff" stroke-width="8px" stroke-linejoin="bevel"/>
<!-- Forward arrow to point 1844,2646 -->
<polygon points=" 1778,2769 1833,2658 1733,2730 1778,2769"
	stroke="#00ffff" stroke-width="8px" stroke-miterlimit="8" fill="#00ffff"/>
<!-- Line -->
<defs>
<clipPath id="cp70">
	<path clip-rule="evenodd" d="M 888,1113 H 12162 V 6312 H 888 z
		M 1733,2730 1778,2769 1854,2645 1843,2636z"/>
</clipPath>
</defs>
<polyline points=" 7650,2700 7649,2700 7648,2699 7645,2697 7640,2695 7633,2691 7624,2686 7612,2680
 7597,2672 7579,2662 7558,2651 7533,2638 7505,2624 7474,2608 7440,2590 7402,2571
 7362,2551 7318,2529 7272,2506 7224,2482 7173,2458 7120,2432 7065,2406 7008,2380
 6950,2353 6891,2326 6830,2299 6768,2272 6705,2245 6641,2219 6576,2193 6510,2167
 6444,2141 6376,2117 6308,2092 6238,2069 6167,2046 6095,2024 6022,2003 5948,1983
 5872,1964 5795,1945 5716,1928 5636,1912 5554,1898 5470,1885 5385,1873 5299,1864
 5212,1856 5125,1850 5037,1846 4950,1845 4853,1847 4759,1851 4668,1859 4580,1868
 4497,1881 4417,1895 4341,1911 4269,1929 4200,1948 4135,1969 4074,1992 4015,2015
 3959,2039 3906,2065 3855,2091 3806,2119 3759,2147 3715,2176 3672,2205 3630,2235
 3591,2265 3552,2295 3516,2326 3480,2356 3447,2387 3415,2416 3384,2445 3356,2474
 3329,2501 3304,2527 3280,2552 3259,2575 3240,2596 3223,2615 3207,2632 3194,2647
 3183,2660 3174,2671 3166,2680 3160,2687 3156,2692 3150,2700" clip-path="url(#cp70)"
	stroke="#ff0000" stroke-width="8px" stroke-linejoin="bevel"/>
<!-- Forward arrow to point 0,0 -->
<polyline points=""
	stroke="#ff0000" stroke-width="8px" stroke-miterlimit="8" fill="#ff0000"/>
<!-- Line -->
<defs>
<clipPath id="cp71">
	<path clip-rule="evenodd" d="M 888,1113 H 12162 V 6312 H 888 z
		M 6590,2166 6568,2222 6709,2254 6714,2241z"/>
</clipPath>
</defs>
<polyline points=" 3150,2700 3151,2700 3153,2698 3157,2696 3163,2693 3171,2689 3182,2683 3197,2675
 3215,2665 3236,2654 3261,2641 3289,2627 3320,2611 3355,2593 3392,2574 3432,2554
 3475,2533 3519,2512 3566,2489 3614,2467 3663,2444 3714,2421 3766,2398 3819,2376
 3873,2354 3927,2332 3983,2311 4039,2290 4097,2270 4155,2251 4214,2232 4275,2215
 4337,2198 4400,2183 4465,2168 4532,2155 4599,2144 4668,2134 4738,2126 4809,2120
 4880,2116 4950,2115 5030,2117 5107,2122 5180,2130 5249,2140 5313,2153 5373,2168
 5429,2185 5482,2203 5531,2223 5576,2244 5619,2267 5659,2290 5697,2314 5733,2339
 5766,2365 5798,2391 5828,2417 5857,2444 5884,2471 5909,2497 5933,2523 5955,2547
 5975,2571 5994,2593 6010,2613 6025,2632 6037,2648 6047,2662 6056,2673 6063,2683
 6068,2690 6075,2700" clip-path="url(#cp71)"
	stroke="#00ff00" stroke-width="8px" stroke-linejoin="bevel"/>
<!-- Forward arrow to point 6705,2245 -->
<polygon points=" 6568,2222 6690,2239 6590,2166 6568,2222"
	stroke="#00ff00" stroke-width="8px" stroke-miterlimit="8" fill="#00ff00"/>
<!-- Line -->
<defs>
<clipPath id="cp72">
	<path clip-rule="evenodd" d="M 888,1113 H 12162 V 6312 H 888 z
		M 4236,2256 4217,2199 4088,2266 4093,2279z"/>
</clipPath>
</defs>
<polyline points=" 7650,2700 7649,2700 7648,2699 7646,2698 7642,2695 7636,2692 7629,2688 7619,2683
 7606,2676 7591,2668 7574,2658 7553,2647 7529,2634 7503,2620 7473,2604 7440,2586
 7404,2568 7366,2548 7325,2526 7280,2504 7234,2480 7185,2456 7133,2430 7080,2404
 7024,2377 6967,2350 6908,2323 6847,2295 6785,2267 6722,2239 6656,2211 6590,2183
 6523,2155 6454,2128 6384,2101 6312,2074 6240,2048 6166,2023 6090,1998 6013,1973
 5934,1949 5854,1926 5772,1904 5688,1882 5602,1862 5513,1842 5423,1823 5330,1806
 5234,1789 5136,1774 5036,1760 4933,1748 4827,1737 4720,1727 4611,1720 4500,1715
 4388,1711 4275,1710 4159,1711 4044,1715 3930,1721 3819,1729 3710,1739 3604,1750
 3501,1763 3401,1778 3304,1794 3210,1812 3119,1831 3031,1850 2945,1871 2862,1893
 2781,1916 2702,1939 2625,1964 2551,1989 2478,2014 2407,2041 2337,2068 2269,2095
 2203,2123 2138,2151 2074,2180 2012,2209 1951,2238 1891,2267 1834,2296 1777,2325
 1723,2353 1670,2381 1619,2409 1570,2436 1524,2462 1479,2487 1437,2511 1398,2534
 1361,2556 1327,2576 1295,2595 1267,2612 1241,2627 1219,2641 1199,2654 1182,2664
 1167,2673 1155,2681 1146,2687 1138,2692 1133,2695 1125,2700" clip-path="url(#cp72)"
	stroke="#ff0000" stroke-width="8px" stroke-linejoin="bevel"/>
<!-- Forward arrow to point 4097,2270 -->
<polygon points=" 4217,2199 4112,2265 4236,2256 4217,2199"
	stroke="#ff0000" stroke-width="8px" stroke-miterlimit="8" fill="#ff0000"/>
<!-- Line -->
<defs>
<clipPath id="cp73">
	<path clip-rule="evenodd" d="M 888,1113 H 12162 V 6312 H 888 z
		M 6673,2184 6648,2239 6788,2276 6794,2264z"/>
</clipPath>
</defs>
<polyline points=" 11250,2700 11248,2699 11246,2698 11243,2696 11238,2694 11230,2690 11221,2686
 11210,2680 11196,2673 11179,2665 11159,2656 11137,2645 11111,2632 11082,2618
 11050,2603 11014,2586 10976,2568 10934,2548 10888,2527 10840,2504 10788,2480
 10734,2455 10676,2428 10616,2401 10553,2372 10488,2343 10420,2312 10350,2281
 10278,2250 10204,2217 10128,2184 10051,2151 9971,2118 9891,2084 9809,2050 9725,2016
 9641,1983 9555,1949 9468,1915 9381,1882 9292,1849 9203,1816 9112,1784 9020,1752
 8928,1720 8834,1689 8740,1659 8645,1629 8548,1600 8450,1571 8351,1543 8251,1516
 8149,1490 8047,1464 7942,1439 7836,1416 7729,1393 7619,1371 7509,1350 7396,1331
 7282,1312 7166,1295 7049,1279 6930,1265 6810,1253 6689,1242 6566,1232 6444,1225
 6320,1219 6197,1216 6075,1215 5934,1217 5796,1221 5661,1228 5529,1238 5401,1250
 5276,1265 5156,1281 5040,1300 4928,1320 4820,1342 4716,1366 4615,1391 4519,1418
 4425,1446 4336,1475 4249,1505 4165,1536 4084,1568 4006,1601 3930,1636 3856,1670
 3785,1706 3716,1742 3649,1780 3583,1817 3520,1855 3458,1894 3398,1933 3339,1972
 3283,2011 3227,2050 3174,2090 3122,2129 3072,2167 3023,2206 2977,2243 2932,2280
 2889,2316 2848,2351 2809,2385 2772,2418 2737,2449 2705,2478 2675,2506 2647,2532
 2621,2556 2598,2579 2577,2599 2558,2617 2541,2633 2527,2647 2515,2660 2505,2670
 2496,2678 2489,2685 2484,2690 2475,2700" clip-path="url(#cp73)"
	stroke="#ff00ff" stroke-width="8px" stroke-linejoin="bevel"/>
<!-- Forward arrow to point 6785,2267 -->
<polygon points=" 6648,2239 6770,2260 6673,2184 6648,2239"
	stroke="#ff00ff" stroke-width="8px" stroke-miterlimit="8" fill="#ff00ff"/>
<!-- Line -->
<defs>
<clipPath id="cp74">
	<path clip-rule="evenodd" d="M 888,1113 H 12162 V 6312 H 888 z
		M 10166,2167 10141,2222 10281,2259 10287,2247z"/>
</clipPath>
</defs>
<polyline points=" 11250,2700 11249,2699 11247,2698 11243,2697 11239,2694 11233,2691 11224,2687
 11214,2682 11202,2676 11187,2668 11169,2660 11149,2650 11125,2638 11099,2625
 11070,2611 11038,2595 11003,2578 10964,2560 10923,2540 10878,2519 10831,2496
 10780,2472 10727,2447 10671,2421 10612,2393 10551,2365 10487,2336 10421,2306
 10352,2275 10282,2244 10209,2211 10135,2179 10059,2146 9981,2112 9901,2079 9821,2045
 9738,2011 9655,1977 9570,1943 9484,1909 9397,1875 9309,1842 9219,1808 9129,1775
 9038,1743 8945,1710 8852,1678 8757,1647 8661,1616 8564,1586 8466,1556 8367,1526
 8266,1498 8164,1470 8060,1443 7955,1416 7848,1391 7739,1366 7629,1342 7517,1318
 7403,1296 7287,1275 7169,1255 7049,1236 6927,1218 6803,1202 6678,1187 6550,1173
 6421,1161 6291,1150 6159,1141 6026,1134 5892,1129 5759,1126 5625,1125 5477,1126
 5330,1130 5186,1137 5044,1145 4905,1156 4769,1169 4637,1184 4508,1201 4383,1219
 4261,1239 4143,1261 4029,1284 3917,1308 3809,1333 3704,1360 3602,1388 3503,1416
 3407,1446 3313,1476 3222,1508 3133,1540 3046,1573 2962,1607 2879,1641 2798,1676
 2719,1712 2641,1748 2566,1785 2492,1822 2419,1859 2348,1897 2279,1935 2211,1973
 2145,2011 2080,2049 2017,2087 1955,2124 1896,2161 1838,2198 1782,2234 1728,2270
 1675,2304 1625,2338 1578,2370 1532,2402 1489,2432 1448,2460 1410,2488 1374,2513
 1341,2537 1311,2560 1283,2580 1257,2599 1234,2616 1214,2631 1196,2645 1181,2657
 1168,2667 1157,2675 1148,2682 1140,2688 1135,2692 1125,2700" clip-path="url(#cp74)"
	stroke="#ff00ff" stroke-width="8px" stroke-linejoin="bevel"/>
<!-- Forward arrow to point 10278,2250 -->
<polygon points=" 10141,2222 10263,2243 10166,2167 10141,2222"
	stroke="#ff00ff" stroke-width="8px" stroke-miterlimit="8" fill="#ff00ff"/>
<!-- Line -->
<defs>
<clipPath id="cp75">
	<path clip-rule="evenodd" d="M 888,1113 H 12162 V 6312 H 888 z
		M 10240,2192 10215,2247 10355,2284 10361,2272z"/>
</clipPath>
</defs>
<polyline points=" 11250,2700 11248,2699 11246,2698 11243,2697 11238,2694 11232,2691 11223,2687
 11212,2681 11199,2675 11183,2667 11164,2658 11143,2647 11118,2635 11091,2622
 11060,2607 11027,2591 10990,2573 10949,2554 10906,2533 10860,2511 10810,2488
 10758,2464 10702,2438 10644,2411 10584,2383 10520,2354 10454,2324 10386,2294
 10316,2262 10244,2230 10169,2198 10093,2165 10016,2132 9936,2098 9856,2065 9773,2031
 9690,1997 9605,1963 9520,1929 9433,1895 9345,1862 9256,1829 9166,1796 9075,1763
 8983,1731 8890,1699 8795,1668 8700,1637 8604,1607 8507,1578 8408,1549 8308,1520
 8207,1493 8104,1466 8000,1440 7894,1415 7787,1390 7678,1367 7567,1344 7454,1323
 7340,1303 7224,1283 7106,1265 6986,1248 6864,1233 6741,1219 6616,1207 6490,1196
 6363,1187 6235,1180 6107,1174 5978,1171 5850,1170 5703,1171 5558,1176 5416,1183
 5277,1192 5141,1204 5009,1218 4881,1234 4757,1253 4637,1272 4520,1294 4408,1317
 4299,1342 4193,1368 4092,1395 3993,1423 3898,1453 3805,1484 3716,1515 3629,1548
 3544,1581 3462,1616 3382,1651 3304,1686 3228,1723 3155,1760 3083,1798 3012,1836
 2944,1874 2877,1913 2812,1952 2748,1991 2686,2031 2626,2070 2567,2109 2510,2147
 2455,2186 2402,2223 2351,2260 2301,2297 2254,2332 2209,2366 2166,2399 2126,2430
 2088,2460 2052,2489 2019,2516 1988,2541 1960,2564 1934,2585 1911,2604 1891,2622
 1873,2637 1857,2650 1844,2662 1832,2672 1823,2680 1816,2686 1810,2691 1800,2700
" clip-path="url(#cp75)"
	stroke="#ff00ff" stroke-width="8px" stroke-linejoin="bevel"/>
<!-- Forward arrow to point 10352,2275 -->
<polygon points=" 10215,2247 10337,2268 10240,2192 10215,2247"
	stroke="#ff00ff" stroke-width="8px" stroke-miterlimit="8" fill="#ff00ff"/>
<!-- Line -->
<defs>
<clipPath id="cp76">
	<path clip-rule="evenodd" d="M 888,1113 H 12162 V 6312 H 888 z
		M 10204,2179 10179,2234 10319,2271 10325,2259z"/>
</clipPath>
</defs>
<polyline points=" 11250,2700 11249,2700 11248,2699 11246,2698 11242,2696 11237,2694 11229,2690
 11220,2685 11207,2679 11192,2672 11175,2664 11154,2654 11130,2642 11103,2629
 11072,2615 11038,2599 11001,2581 10961,2562 10917,2541 10869,2519 10819,2496
 10765,2471 10708,2445 10649,2418 10587,2390 10522,2361 10454,2331 10384,2300
 10313,2268 10239,2236 10163,2204 10085,2171 10006,2137 9926,2104 9844,2070 9761,2036
 9676,2002 9591,1969 9504,1935 9417,1902 9329,1869 9240,1837 9150,1804 9059,1773
 8967,1741 8874,1710 8780,1680 8686,1651 8590,1622 8494,1594 8396,1566 8297,1539
 8197,1513 8095,1488 7992,1464 7888,1441 7782,1419 7675,1398 7567,1378 7456,1359
 7345,1342 7232,1326 7118,1311 7002,1298 6886,1287 6769,1278 6651,1270 6534,1265
 6416,1261 6300,1260 6166,1262 6035,1266 5907,1274 5783,1284 5663,1296 5547,1311
 5435,1328 5327,1347 5224,1368 5125,1391 5030,1415 4938,1441 4851,1468 4767,1497
 4686,1526 4608,1557 4534,1589 4462,1622 4393,1656 4326,1690 4262,1726 4199,1762
 4139,1799 4081,1837 4025,1875 3970,1913 3917,1952 3866,1991 3817,2031 3769,2070
 3722,2109 3678,2148 3635,2187 3593,2225 3554,2263 3516,2300 3479,2336 3445,2371
 3412,2404 3382,2437 3353,2467 3326,2496 3302,2523 3279,2548 3258,2572 3240,2593
 3223,2612 3209,2629 3196,2644 3185,2657 3176,2668 3169,2677 3163,2684 3158,2690
 3150,2700" clip-path="url(#cp76)"
	stroke="#ff00ff" stroke-width="8px" stroke-linejoin="bevel"/>
<!-- Forward arrow to point 10316,2262 -->
<polygon points=" 10179,2234 10301,2255 10204,2179 10179,2234"
	stroke="#ff00ff" stroke-width="8px" stroke-miterlimit="8" fill="#ff00ff"/>
<!-- Line -->
<defs>
<clipPath id="cp77">
	<path clip-rule="evenodd" d="M 888,1113 H 12162 V 6312 H 888 z
		M 10200,2186 10176,2241 10317,2277 10322,2264z"/>
</clipPath>
</defs>
<polyline points=" 2475,2700 2476,2700 2477,2699 2480,2697 2485,2694 2492,2691 2502,2685 2514,2679
 2530,2670 2548,2661 2570,2649 2595,2635 2624,2620 2656,2603 2692,2584 2731,2564
 2773,2542 2819,2519 2867,2494 2918,2468 2971,2442 3027,2414 3085,2385 3144,2356
 3206,2327 3269,2297 3333,2267 3398,2237 3465,2207 3532,2177 3600,2147 3669,2118
 3739,2089 3809,2061 3880,2033 3952,2006 4025,1979 4098,1954 4173,1929 4248,1905
 4324,1882 4402,1860 4480,1839 4559,1819 4640,1800 4722,1783 4805,1767 4889,1753
 4974,1741 5059,1730 5145,1721 5231,1715 5316,1711 5400,1710 5501,1712 5598,1718
 5690,1727 5779,1739 5862,1755 5940,1773 6014,1793 6082,1815 6147,1839 6208,1865
 6264,1893 6318,1922 6368,1952 6415,1984 6459,2017 6501,2051 6540,2085 6577,2121
 6613,2157 6646,2193 6678,2230 6708,2267 6736,2304 6763,2340 6788,2376 6812,2411
 6833,2445 6854,2478 6872,2509 6889,2538 6905,2565 6918,2590 6930,2612 6941,2631
 6949,2648 6957,2662 6962,2674 6967,2683 6970,2690 6975,2700" clip-path="url(#cp77)"
	stroke="#00ff00" stroke-width="8px" stroke-linejoin="bevel"/>
<!-- Forward arrow to point 10313,2268 -->
<polygon points=" 10176,2241 10298,2262 10200,2186 10176,2241"
	stroke="#00ff00" stroke-width="8px" stroke-miterlimit="8" fill="#00ff00"/>
<!-- Line -->
<defs>
<clipPath id="cp78">
	<path clip-rule="evenodd" d="M 888,1113 H 12162 V 6312 H 888 z
		M 3602,2179 3577,2124 3456,2204 3462,2216z"/>
</clipPath>
</defs>
<polyline points=" 1800,2700 1801,2700 1802,2699 1804,2698 1808,2696 1813,2694 1821,2690 1830,2685
 1843,2679 1858,2672 1875,2664 1896,2654 1920,2642 1947,2629 1978,2615 2012,2599
 2049,2581 2089,2562 2133,2541 2181,2519 2231,2496 2285,2471 2342,2445 2401,2418
 2463,2390 2528,2361 2596,2331 2666,2300 2737,2268 2811,2236 2887,2204 2965,2171
 3044,2137 3124,2104 3206,2070 3289,2036 3374,2002 3459,1969 3546,1935 3633,1902
 3721,1869 3810,1837 3900,1804 3991,1773 4083,1741 4176,1710 4270,1680 4364,1651
 4460,1622 4556,1594 4654,1566 4753,1539 4853,1513 4955,1488 5058,1464 5162,1441
 5268,1419 5375,1398 5483,1378 5594,1359 5705,1342 5818,1326 5932,1311 6048,1298
 6164,1287 6281,1278 6399,1270 6516,1265 6634,1261 6750,1260 6884,1262 7015,1266
 7143,1274 7267,1284 7387,1296 7503,1311 7615,1328 7723,1347 7826,1368 7925,1391
 8020,1415 8112,1441 8199,1468 8283,1497 8364,1526 8442,1557 8516,1589 8588,1622
 8657,1656 8724,1690 8788,1726 8851,1762 8911,1799 8969,1837 9025,1875 9080,1913
 9133,1952 9184,1991 9233,2031 9281,2070 9328,2109 9372,2148 9415,2187 9457,2225
 9496,2263 9534,2300 9571,2336 9605,2371 9638,2404 9668,2437 9697,2467 9724,2496
 9748,2523 9771,2548 9792,2572 9810,2593 9827,2612 9841,2629 9854,2644 9865,2657
 9874,2668 9881,2677 9887,2684 9892,2690 9900,2700" clip-path="url(#cp78)"
	stroke="#00ff00" stroke-width="8px" stroke-linejoin="bevel"/>
<!-- Forward arrow to point 3465,2207 -->
<polygon points=" 3577,2124 3480,2200 3602,2179 3577,2124"
	stroke="#00ff00" stroke-width="8px" stroke-miterlimit="8" fill="#00ff00"/>
<!-- Line -->
<defs>
<clipPath id="cp79">
	<path clip-rule="evenodd" d="M 888,1113 H 12162 V 6312 H 888 z
		M 2874,2241 2850,2186 2728,2264 2733,2277z"/>
</clipPath>
</defs>
<polyline points=" 6975,2700 6974,2700 6972,2698 6968,2696 6962,2693 6954,2689 6943,2683 6928,2675
 6910,2665 6889,2654 6864,2641 6836,2627 6805,2611 6770,2593 6733,2574 6693,2554
 6650,2533 6606,2512 6559,2489 6511,2467 6462,2444 6411,2421 6359,2398 6306,2376
 6252,2354 6198,2332 6142,2311 6086,2290 6028,2270 5970,2251 5911,2232 5850,2215
 5788,2198 5725,2183 5660,2168 5593,2155 5526,2144 5457,2134 5387,2126 5316,2120
 5245,2116 5175,2115 5095,2117 5018,2122 4945,2130 4876,2140 4812,2153 4752,2168
 4696,2185 4643,2203 4594,2223 4549,2244 4506,2267 4466,2290 4428,2314 4392,2339
 4359,2365 4327,2391 4297,2417 4268,2444 4241,2471 4216,2497 4192,2523 4170,2547
 4150,2571 4131,2593 4115,2613 4100,2632 4088,2648 4078,2662 4069,2673 4062,2683
 4057,2690 4050,2700" clip-path="url(#cp79)"
	stroke="#ff0000" stroke-width="8px" stroke-linejoin="bevel"/>
<!-- Forward arrow to point 2737,2268 -->
<polygon points=" 2850,2186 2752,2262 2874,2241 2850,2186"
	stroke="#ff0000" stroke-width="8px" stroke-miterlimit="8" fill="#ff0000"/>
<!-- Text -->
<text xml:space="preserve" x="6524" y="5985" fill="#000000" font-family="Helvetica" font-style="normal" font-weight="normal" font-size="288" text-anchor="middle">root</text>
</g>
</svg>
